<mxfile host="app.diagrams.net" agent="Mozilla/5.0 (Macintosh; Intel Mac OS X 10_15_7) AppleWebKit/537.36 (KHTML, like Gecko) Chrome/138.0.0.0 Safari/537.36" version="28.0.7">
  <diagram name="Page-1" id="wd3bzUvCYfyA5Itwg48Y">
    <mxGraphModel dx="3215" dy="2443" grid="1" gridSize="10" guides="1" tooltips="1" connect="1" arrows="1" fold="1" page="1" pageScale="1" pageWidth="850" pageHeight="1100" math="0" shadow="0">
      <root>
        <mxCell id="0" />
        <mxCell id="1" parent="0" />
        <mxCell id="9INkm_Tr2pudweyYevNp-134" value="" style="rounded=0;whiteSpace=wrap;html=1;fillColor=none;" parent="1" vertex="1">
          <mxGeometry x="-510" y="-830" width="3990" height="1800" as="geometry" />
        </mxCell>
        <mxCell id="9INkm_Tr2pudweyYevNp-129" value="" style="rounded=0;whiteSpace=wrap;html=1;fillColor=light-dark(#FFF2CC,#9E1212);strokeColor=#d6b656;gradientColor=light-dark(#FFD966,#B89AA2);" parent="1" vertex="1">
          <mxGeometry x="2560" width="860" height="340" as="geometry" />
        </mxCell>
        <mxCell id="9INkm_Tr2pudweyYevNp-53" value="" style="group" parent="1" vertex="1" connectable="0">
          <mxGeometry x="-420" y="-250" width="1532" height="1194" as="geometry" />
        </mxCell>
        <mxCell id="9INkm_Tr2pudweyYevNp-51" value="" style="group" parent="9INkm_Tr2pudweyYevNp-53" vertex="1" connectable="0">
          <mxGeometry y="60" width="1532" height="1134" as="geometry" />
        </mxCell>
        <mxCell id="9INkm_Tr2pudweyYevNp-50" value="" style="rounded=0;whiteSpace=wrap;html=1;fillColor=#f8cecc;gradientColor=light-dark(#EA6B66,#D08F46);strokeColor=#b85450;" parent="9INkm_Tr2pudweyYevNp-51" vertex="1">
          <mxGeometry width="1500" height="1070" as="geometry" />
        </mxCell>
        <mxCell id="9INkm_Tr2pudweyYevNp-26" style="edgeStyle=orthogonalEdgeStyle;rounded=0;orthogonalLoop=1;jettySize=auto;html=1;entryX=0;entryY=0.5;entryDx=0;entryDy=0;" parent="9INkm_Tr2pudweyYevNp-51" source="9INkm_Tr2pudweyYevNp-1" target="9INkm_Tr2pudweyYevNp-25" edge="1">
          <mxGeometry relative="1" as="geometry" />
        </mxCell>
        <mxCell id="9INkm_Tr2pudweyYevNp-37" style="edgeStyle=orthogonalEdgeStyle;rounded=0;orthogonalLoop=1;jettySize=auto;html=1;entryX=0.484;entryY=0.031;entryDx=0;entryDy=0;entryPerimeter=0;startArrow=classic;startFill=1;" parent="9INkm_Tr2pudweyYevNp-51" source="9INkm_Tr2pudweyYevNp-9" target="9INkm_Tr2pudweyYevNp-29" edge="1">
          <mxGeometry relative="1" as="geometry" />
        </mxCell>
        <mxCell id="9INkm_Tr2pudweyYevNp-45" value="" style="group" parent="9INkm_Tr2pudweyYevNp-51" vertex="1" connectable="0">
          <mxGeometry x="170" y="150" width="200" height="370" as="geometry" />
        </mxCell>
        <mxCell id="9INkm_Tr2pudweyYevNp-1" value="" style="swimlane;startSize=0;" parent="9INkm_Tr2pudweyYevNp-45" vertex="1">
          <mxGeometry y="40" width="200" height="330" as="geometry" />
        </mxCell>
        <mxCell id="9INkm_Tr2pudweyYevNp-6" value="producer" style="ellipse;whiteSpace=wrap;html=1;aspect=fixed;" parent="9INkm_Tr2pudweyYevNp-1" vertex="1">
          <mxGeometry x="73.33333333333333" y="20" width="53.33333333333333" height="53.33333333333333" as="geometry" />
        </mxCell>
        <mxCell id="9INkm_Tr2pudweyYevNp-7" value="producer" style="ellipse;whiteSpace=wrap;html=1;aspect=fixed;" parent="9INkm_Tr2pudweyYevNp-1" vertex="1">
          <mxGeometry x="73.33333333333333" y="120" width="53.33333333333333" height="53.33333333333333" as="geometry" />
        </mxCell>
        <mxCell id="9INkm_Tr2pudweyYevNp-8" value="producer" style="ellipse;whiteSpace=wrap;html=1;aspect=fixed;" parent="9INkm_Tr2pudweyYevNp-1" vertex="1">
          <mxGeometry x="73.33333333333333" y="220" width="53.33333333333333" height="53.33333333333333" as="geometry" />
        </mxCell>
        <mxCell id="9INkm_Tr2pudweyYevNp-47" value="" style="group" parent="9INkm_Tr2pudweyYevNp-51" vertex="1" connectable="0">
          <mxGeometry x="510" y="70" width="412" height="574" as="geometry" />
        </mxCell>
        <mxCell id="9INkm_Tr2pudweyYevNp-18" value="" style="shape=image;verticalLabelPosition=bottom;labelBackgroundColor=default;verticalAlign=top;aspect=fixed;imageAspect=0;image=data:image/png,iVBORw0KGgoAAAANSUhEUgAAAgAAAAIACAYAAAD0eNT6AAAACXBIWXMAAAsTAAALEwEAmpwYAAAKT2lDQ1BQaG90b3Nob3AgSUNDIHByb2ZpbGUAAHjanVNnVFPpFj333vRCS4iAlEtvUhUIIFJCi4AUkSYqIQkQSoghodkVUcERRUUEG8igiAOOjoCMFVEsDIoK2AfkIaKOg6OIisr74Xuja9a89+bN/rXXPues852zzwfACAyWSDNRNYAMqUIeEeCDx8TG4eQuQIEKJHAAEAizZCFz/SMBAPh+PDwrIsAHvgABeNMLCADATZvAMByH/w/qQplcAYCEAcB0kThLCIAUAEB6jkKmAEBGAYCdmCZTAKAEAGDLY2LjAFAtAGAnf+bTAICd+Jl7AQBblCEVAaCRACATZYhEAGg7AKzPVopFAFgwABRmS8Q5ANgtADBJV2ZIALC3AMDOEAuyAAgMADBRiIUpAAR7AGDIIyN4AISZABRG8lc88SuuEOcqAAB4mbI8uSQ5RYFbCC1xB1dXLh4ozkkXKxQ2YQJhmkAuwnmZGTKBNA/g88wAAKCRFRHgg/P9eM4Ors7ONo62Dl8t6r8G/yJiYuP+5c+rcEAAAOF0ftH+LC+zGoA7BoBt/qIl7gRoXgugdfeLZrIPQLUAoOnaV/Nw+H48PEWhkLnZ2eXk5NhKxEJbYcpXff5nwl/AV/1s+X48/Pf14L7iJIEyXYFHBPjgwsz0TKUcz5IJhGLc5o9H/LcL//wd0yLESWK5WCoU41EScY5EmozzMqUiiUKSKcUl0v9k4t8s+wM+3zUAsGo+AXuRLahdYwP2SycQWHTA4vcAAPK7b8HUKAgDgGiD4c93/+8//UegJQCAZkmScQAAXkQkLlTKsz/HCAAARKCBKrBBG/TBGCzABhzBBdzBC/xgNoRCJMTCQhBCCmSAHHJgKayCQiiGzbAdKmAv1EAdNMBRaIaTcA4uwlW4Dj1wD/phCJ7BKLyBCQRByAgTYSHaiAFiilgjjggXmYX4IcFIBBKLJCDJiBRRIkuRNUgxUopUIFVIHfI9cgI5h1xGupE7yAAygvyGvEcxlIGyUT3UDLVDuag3GoRGogvQZHQxmo8WoJvQcrQaPYw2oefQq2gP2o8+Q8cwwOgYBzPEbDAuxsNCsTgsCZNjy7EirAyrxhqwVqwDu4n1Y8+xdwQSgUXACTYEd0IgYR5BSFhMWE7YSKggHCQ0EdoJNwkDhFHCJyKTqEu0JroR+cQYYjIxh1hILCPWEo8TLxB7iEPENyQSiUMyJ7mQAkmxpFTSEtJG0m5SI+ksqZs0SBojk8naZGuyBzmULCAryIXkneTD5DPkG+Qh8lsKnWJAcaT4U+IoUspqShnlEOU05QZlmDJBVaOaUt2ooVQRNY9aQq2htlKvUYeoEzR1mjnNgxZJS6WtopXTGmgXaPdpr+h0uhHdlR5Ol9BX0svpR+iX6AP0dwwNhhWDx4hnKBmbGAcYZxl3GK+YTKYZ04sZx1QwNzHrmOeZD5lvVVgqtip8FZHKCpVKlSaVGyovVKmqpqreqgtV81XLVI+pXlN9rkZVM1PjqQnUlqtVqp1Q61MbU2epO6iHqmeob1Q/pH5Z/YkGWcNMw09DpFGgsV/jvMYgC2MZs3gsIWsNq4Z1gTXEJrHN2Xx2KruY/R27iz2qqaE5QzNKM1ezUvOUZj8H45hx+Jx0TgnnKKeX836K3hTvKeIpG6Y0TLkxZVxrqpaXllirSKtRq0frvTau7aedpr1Fu1n7gQ5Bx0onXCdHZ4/OBZ3nU9lT3acKpxZNPTr1ri6qa6UbobtEd79up+6Ynr5egJ5Mb6feeb3n+hx9L/1U/W36p/VHDFgGswwkBtsMzhg8xTVxbzwdL8fb8VFDXcNAQ6VhlWGX4YSRudE8o9VGjUYPjGnGXOMk423GbcajJgYmISZLTepN7ppSTbmmKaY7TDtMx83MzaLN1pk1mz0x1zLnm+eb15vft2BaeFostqi2uGVJsuRaplnutrxuhVo5WaVYVVpds0atna0l1rutu6cRp7lOk06rntZnw7Dxtsm2qbcZsOXYBtuutm22fWFnYhdnt8Wuw+6TvZN9un2N/T0HDYfZDqsdWh1+c7RyFDpWOt6azpzuP33F9JbpL2dYzxDP2DPjthPLKcRpnVOb00dnF2e5c4PziIuJS4LLLpc+Lpsbxt3IveRKdPVxXeF60vWdm7Obwu2o26/uNu5p7ofcn8w0nymeWTNz0MPIQ+BR5dE/C5+VMGvfrH5PQ0+BZ7XnIy9jL5FXrdewt6V3qvdh7xc+9j5yn+M+4zw33jLeWV/MN8C3yLfLT8Nvnl+F30N/I/9k/3r/0QCngCUBZwOJgUGBWwL7+Hp8Ib+OPzrbZfay2e1BjKC5QRVBj4KtguXBrSFoyOyQrSH355jOkc5pDoVQfujW0Adh5mGLw34MJ4WHhVeGP45wiFga0TGXNXfR3ENz30T6RJZE3ptnMU85ry1KNSo+qi5qPNo3ujS6P8YuZlnM1VidWElsSxw5LiquNm5svt/87fOH4p3iC+N7F5gvyF1weaHOwvSFpxapLhIsOpZATIhOOJTwQRAqqBaMJfITdyWOCnnCHcJnIi/RNtGI2ENcKh5O8kgqTXqS7JG8NXkkxTOlLOW5hCepkLxMDUzdmzqeFpp2IG0yPTq9MYOSkZBxQqohTZO2Z+pn5mZ2y6xlhbL+xW6Lty8elQfJa7OQrAVZLQq2QqboVFoo1yoHsmdlV2a/zYnKOZarnivN7cyzytuQN5zvn//tEsIS4ZK2pYZLVy0dWOa9rGo5sjxxedsK4xUFK4ZWBqw8uIq2Km3VT6vtV5eufr0mek1rgV7ByoLBtQFr6wtVCuWFfevc1+1dT1gvWd+1YfqGnRs+FYmKrhTbF5cVf9go3HjlG4dvyr+Z3JS0qavEuWTPZtJm6ebeLZ5bDpaql+aXDm4N2dq0Dd9WtO319kXbL5fNKNu7g7ZDuaO/PLi8ZafJzs07P1SkVPRU+lQ27tLdtWHX+G7R7ht7vPY07NXbW7z3/T7JvttVAVVN1WbVZftJ+7P3P66Jqun4lvttXa1ObXHtxwPSA/0HIw6217nU1R3SPVRSj9Yr60cOxx++/p3vdy0NNg1VjZzG4iNwRHnk6fcJ3/ceDTradox7rOEH0x92HWcdL2pCmvKaRptTmvtbYlu6T8w+0dbq3nr8R9sfD5w0PFl5SvNUyWna6YLTk2fyz4ydlZ19fi753GDborZ752PO32oPb++6EHTh0kX/i+c7vDvOXPK4dPKy2+UTV7hXmq86X23qdOo8/pPTT8e7nLuarrlca7nuer21e2b36RueN87d9L158Rb/1tWeOT3dvfN6b/fF9/XfFt1+cif9zsu72Xcn7q28T7xf9EDtQdlD3YfVP1v+3Njv3H9qwHeg89HcR/cGhYPP/pH1jw9DBY+Zj8uGDYbrnjg+OTniP3L96fynQ89kzyaeF/6i/suuFxYvfvjV69fO0ZjRoZfyl5O/bXyl/erA6xmv28bCxh6+yXgzMV70VvvtwXfcdx3vo98PT+R8IH8o/2j5sfVT0Kf7kxmTk/8EA5jz/GMzLdsAAAAgY0hSTQAAeiUAAICDAAD5/wAAgOkAAHUwAADqYAAAOpgAABdvkl/FRgAALeNJREFUeNrs3eFV28q6xvFn7trfj1LBNhXEVICpIKaCmAoCFYArACrAVIBTAUoFKBWgU0F0Kpj7YYZskg3BYMnzzuj/W2uvfc+6517bo0HvM6+kkfPeCwAAjMv/MQQAABAAAAAAAQAAABAAAAAAAQAAABAAAAAAAQAAABAAAAAAAQAAABAAAAAAAQAAABAAAAAAAQAAABAAAAAAAQAAABAAAAAAAQAAABAAAAAgAAAAAAIAAAAgAAAAAAIAAAAgAAAAAAIAAAAgAAAAAAIAAAAgAAAAAAIAAAAgAAAAAAIAAAAgAAAAAAIAAAAgAAAAAAIAAAAgAAAAQAAAAAAEAAAAQAAAAAAEAAAAQAAAAAAEAAAAQAAAAAAEAAAAQAAAAAAEAAAAQAAAAAAEAAAAQAAAAADv8hdDMG7OudH+du99JWka/+PT//l3jaTu8X92znXMHBiZwwwCCADABoV+JumjpMkfiv2mJ91GUivpu6SaYAAguwUgCZIOQKFFfybpUyz60x19bBPDwFfnXM3sAh0AEABAANjNyXAei/5coaWfUidpHcPAmpkGAgAIACAA9HsCnEhaSPqs0Nq3qJV0I2nlnGuZdSAAgAAAAsB2hf8sFv+crCTdcIkABAAQAEAAeNsJbyrpQuHafs5qSUuCAAgASIV9AJDNit97fy3pvoDir/gb7rz317GbAQB0AEAH4Lfify7pi9Lf2DekpXPunBkJOgAgAGD0ASC2+6+1u8f4UmslHXNZAAQA7AKXAGB51X8/ouIvhacY7uJvBwA6ABhPByDu2nerMq7zb6ORdMRjg6ADAAIAig8AseV/p7Kv9b9FF0NAzVCAAIC+cQkAVk5kC4WWP8X/H5XCJYEFQwGAAIASi/+Fws1+eN51fAQSAHrD2wCRuvhfK7/d/FJYeO/lnDtmKADQAQDFf3whgE4AAAIAKP6EAAAgAIDiTwgAAAIAjBb/BcW/txBwwjAAeC/2ARj7BNjhPgDe+7nCJj/oz7FzbsUwjDZQMwggAMB2AIhvvOM5//51kg6dcw1DQQAA3oJLANiVW4r/ICqFfQIYWwAEAJhbpVxoXC/12bWppAuGAcBbcAlg7BNg4EsA3vuZwv7+GN6Rc27NMIwqXDMIIADAXgCIbel7hdfcYnidpD3nXMdQEACA13AJAEM6o/jvVCUuBQCgA4CUHYD4at97RjiJQ14hTAcAoAOAVFiJpnPGEAAgACDFqmQuacZIJDOLOy4CwIu4BDD2CTDAJQDv/YPyufZfS/omqY3/SFLjnOviEwyKv2Ui6UDhkbsqg9/VOuf2mOHFh20GAQQA2AgAceVp+UU1naS1pK/vfWQudjg+SZobDwNsE0wAAAgA2FkAuJfNTX9aSUtJ674ek4uPOc5l92kHugAEAIAAgOEDgNFNfzpJV86584FPxCcxCFjrCPBEAAEAeBY3AaJPn419n1rS/tDFPwapS0l7CpcXLPnCtARABwCDdQBiO/yHoZ+23EXh/0M3wNJjkHvOuZbZTgcAoAOAISwMfZfjVMX/STfgSOHygwVzpicAOgAYqgNg4ea/Lhb/tZHV2VThnogq8VfhZkA6AAABAP0HAO/9RNKDgZ+z75xrjJ2grYQAc2MDAgDS4hIA+jA38B2OLRa4+J1ODXyVGdMUAAEAffuU+PNXlje8id/tMvHX+Mw0BfDLuYkW0sgnQD+XAFJOolahvd1ZH2sDWyR/yGGc8KY5xSCADgCSnYBmib/CaUZF7Tjx58+YsQAIACihqNRW7vjfRNyRr074FaZMVwAEAPTlY8LPXmY4XilvCDxgugIgACD3VWWT4x738amAemTHCgABAAWaJPrcq4zH7CbR51Zxy2YAIADg/RLfALjOeOhSfne6AAAIANh+RZnoc+ucH2eL3z1VCJgwbQEQAJDravJbAWOX6jcQAAAQAJCtuoDf0HAYARAAkKu/KZ7Z/QYeBQRAAMDWJik+tITtbNmSFwABAHibtqDfUnM4ARAAgPEFAAAgAAAAAAIAAAAgAAA/TQv6LRMOJwACALCZigAAAAQApNWk+FDvffZdAO99quLfMW0BEACwrf8l+txpAWOX6jd8Z9oCIAAgVx8L+A3syAeAAIBs1Yk+d17A2M0SfW7DtAVAAMC2ukSfO8n5PoB4/X86smMGgACAUjjnUq4mP2c8dIuEx6xm5gIgAKAPqULAwntfZTpmn0d2rAAQAEAA6E0l6SS3wfLeL5Tu+f+W6QqAAIC+pHys7EuGXYCzhJ/9jekKgACAvtQJP7tKXFDfuvo/V9rd/2qmK4BHznvPKIx5AjjXR2H7obRb9O4nviFxkzGaSrpP+BU659wHZnxZOH+DDgBSWyf+/FvLlwLid7tO/DVY/QMgAKB3XxN//sRAgf2TC6Xfvvgr0xTAU1wCGPsE6OcSQCXph4Gfs3LOHRtb/V8r4XP/T3xwznXM+LJw/gYdAKQOEZ3SXwaQwt4AZjoBhor/muIPgACAodwY+R4L7/116nsCDBV/ifY/gOcWb7SQRr9677PoPSjtY25PNZKOd/10QNzn/1Z2XlnM3f8F4/yNbfzFEKDnLoCV5/Knku6890vn3OWOTsYn8fdXho7Jimn56nGr4nypfgtu//ntPzeS/vfkP9cxRNeMIugAYOwdgImkB4M/s5F0OtSJ2ns/i4V/ZvC37znnWmb6L3N0JuljLO7TngJbF+fZt/jvehf3XXD+BgEAJgJAPCFZuvb9XBC4cs6tevqtC4UX+8yM/l5zT0UkKvpzSZ/icZrseL7Vkm6GuhTF+RsEAFgKAFa7AL+v1tZxtVZvukJ+sno8kDSXrVY/q//ni76V49QpXI7pNQxw/gYBAGYCQAZdgJdOzo3C2/L++9v/7u+4apxmUPBHvfqPAW2h0JWZGP6qraSreIw6AgAIACgpAOTQBSjdaFb/cb6dZRY6n3YFrt57rDh/YxvsA4AhQkUraclIJHM5huLvvZ/EbtNDhsVfCh2lE0kPFvauAB0A0AHo6+RcKbz9bsIo73xVuVfyzn9xbp3F4lnasbuKAa7bcCyY8aADAHPBopN0ykjs3Gnhxf8krvhPCvx5j8HmPt7ECNABQH4dgCcn7FuFO7ExvNo5d1ho4Z8ovPFxNqLjuVbYzbKjAwACAHIMAFVcsVWM9qA6SfslXvs3usPiLo/r0UubWHH+xja4BIChA0Yn6ZiRGNxxacXfe1/FDtLFiANkpbCl9QVTHAQA5BgC1pIuGYnBXMYxLqn4TyXdictHj06893c8KYBez820kEZfnHd5Ur/TuK7h7kLjnNsvrPjPFN6oSLH7t1bhkkATx4oRAQEAWQSASjwa2KdOhT3yF9+vcM2hffW4HzrnGs7f2AaXALDLsNFJOoonMPRTBCj+41Mp3BcwZShABwBZdACenOinCtd3K47Au+0P9YY5in9Wjra9/4MaQAcA2GXoaCQd0gl4t2OKP6JrOgEgACDHEMBOge8r/iuKP6JKXA7Ae8/DtH9GX4hTF4CpuBywiU5hm9+Siv8sHnv0Mz/edUMoNYAAAAIAIcD2yf2wsLY/x7x/jd5xYyg1YLy4BAALIaSRtB9PYHj+pF5S8a8U2v4U/35NFXZNBAgAyCoEtAo3Bq4YjZ/WpRX/6CIWK/RvEe+rAF4/79L+GX3htbhCXGjc+79L4Xr/ZWk/ipv+dqJ7S3CkBhAAQACwViimsVCMbaXYqLDH/J4c04nCTpAVf3nDz6NNt4imBowXlwBgNZg8nsCWGs9+AUvn3H6JxT/iuv/uTL335wwD6AAguw7AMyvHC5X7ZrhaBb7O97djOFd4wQ92p1PYMbKlAwA6AMg1pLTOuSOFmwTrgn5ao3Ct9rDw4l+J6/4pVOKpABAAUEgQqJ1zhwUEgTau+Pedc/UIDt2JaP2nMo8bLgH/PqfS/hl9Uc15ZTmT9EX5XBqoFa7z12OZX3H1/0AASDvvYnB+6RgxQgQAEACyLTITSQtJnyVNDK7215KuSm7z/+HYXMdjY10bA9p3hUszzXM76sWnUypJM0kH8d85OHwpeFIDCAAgAJRScKYxCMwThoHHov9t21e1FrD6/2H4K3YKG0/dbPPkRbzB8XHOZdcFoAYQAEAAKLEATX9bqVUDFpJa0rd4om2YWVJ8DO3M6Gp/KWn9npfn/OH3TuLvXeTUBaAGEABAAKAYvd/SOXfObPrXmP+QvWv/S0mXfRb+F4KAxcdW1/FpGgIAJPEUAIBhiuDCWPFvFJ6JPx+y+MdQ/fjY6pFsbWI1j+EEIAAAGMwXQ99llWKHxXj/h7W3XH5haoIAAGCo1f9Edt7hcOycO0714QbfcjlnhoIAAKD0InPsnEteeJ1zXQwhFkLAJN4cCxAAAPTus4HvcGqh+P8WBI4VHg/l+IAAAKAsRtr/K+fcpdEhOlb6ewLmzFQQAACUVlwaSadWByc+gXCstE8HcBkABAAAvTtIvcIe+jG/HkJAo7AfQUozpioIAABKKSyXuezCGC9RpPyuB0xVEAAA9OLJi3JS6Aysqt8q5aWKKTMWBAAAJRSVK+ut/2e6ALXCOyRSmLArIAgAAHorKgk/e5XpmN2M9HiBAACgIKmuK6/jjnvZiXsVdIk+fsaUJQAAQM4ryq+Zj9s60ef+hylLAACAnAPAOvNxSxVgpkxZAgAAbCXhDWVNbjf/PaNO9LkVM5cAAAC5rv7r3AcuBpiGDgAIAACwuf8W8jtaDiUIAACwuaaQ3/GdQwkCAIAczRgCgAAAAMiA975iFAgAAIDxIQAQAAAAY5PrDoogAACwg0ICEAAAEAB2ZlLI+H1kCoEAAADjCwATDiUIAACwuYNCfsc0wWe2TB8CAFC0+KjT3wN+xN9jf5zKOVcn+uhZAfMz1W8gAIzcXwwBCiz4s7iiOoj/ngz8kQtJC+99q7Az3XdJdcKiOLbjPXfOrTP+CZ8SfW7H7Bk3571nFMa9ciuhAEwkzWPBn8nWs81rSd8krUt/5Mp7f5doRb5yzh1nPG4PSnMPwNI5d04NIACAAJBr0f+sfN5q1ki6KTUMeO+vFbohKVayezm+Fjh2q+4SffyRc25NDRgv7gFATifLynu/iCvNB0kXyuuVptP4nR+89/fxt1QFHaJUL7SpYhjM0eeEn90KdABAByCD1f6XuLqsCjsEncJlgmXuXYHEq9nWObeX2XhNYpBNMu+ccx/i9+BESAcAMHeCnMa28oOkE5W5b3kVg82D9/464R3hfYTJOuHHT7z3J5kN2UXCz244w4AAAJMrI+/9raR7pbmmnMpC0p33/i7jIJAyBJzFVXUOc3ymtJctvnGmAQEA1gr/44p/PuKhmMUgcJ1LQTNSWKrEq+pN53kl6XrEQQ0EAOCXk+L5CFf8m3QEHrz35xndLLhO/PnzDC4FXCvt1r8de1SAAAALhX8Wn4M+E+8mf8mZpHvv/dz6F3XONUp/d/mF1UsoMeimPo5r/qRAAEDKE2Hlvb9QuGt8woi8aiLp1nt/a7Ub8OSYWjiet977qbHxWcQwlxrX/xECO4+AjHwCJHgMMK7OUrdBc9YpbOJSGypuJ7LXxekkHcauhIXif21kTH7ZNIkaQAcA2NWJ8JxV/9YqhZsELwwcz8dLOBeydwnncZwWBub8tZExWee4YyLoACDjDkBsW9+qgLe3GdPEVe5OT+rx6YQL5fO0xqVz7nTHY1TFwm9pjA5/7xxRAwgAIAAMeSKcxuLPqn8YnXbU6o5F7UQ2rmW/Jyyd7uLSSew6WOuKPLtbIjVgvLgEgF2cCGn5D6tSeEpgsYNj+ZBp8ZfCuxju4o2Uk4HGaOa9v48r/8rY71/ypwI6ANhJB8DQjU9jcuqcu+y7qMWiPytsrGpJV8659ZbjUym0+b/I7supfu79TwcABAAMGgDiDWonjHASK+fccQ/HcBIL/6Lw8epiGPgqqdnkUkq8rDWTdKA87oNYOufOCQAgAGDQAJDwvfDoKQTEO9e/aLybMzUxGPyuUl6voH4MOHsv3ShKDRivvxgCUPyLtPDe660hIO42aGUzn5SmBf2WJY/+gQ4ABu0AUPzz7QTElvaFeEyzNM/e+U8HABJPAYDiP4ZOwPUfjtvj9r33FP8iHTMEIABgyOJ/TvE3HwLOnzluJwqP9Z0wREVa89Y//AmXAMY+Aba8BMCjfnmtBp1zK97FMAqd/nDj329/w4wWAQAEgDcX/6lC6xgZrQqVz/a9eL+jTfc3oAYQAEAAeGvxrxTaxxWjCJjypkdAqQHjxT0AeK9bij9gTiPplGEAAQCDiDeUzRgJwJRO4T6PjqHAJrgEMPYJ8MZLAPEGsjtGDjDn8D13/VMD6AAAm5woKnHHP2DRMY/8gQCAIZ2JR8fQn5WkD/HfeL9T5xxjiDfjEsDYJ8CGlwBo/aNHdSxazZP5da+y9t/fWYja9s2P1AACAAgAr50kHgpd/dfx399e+e8dxH/PmDXv1sbCv35mflUK7yJYMEwbu3TObX3HPzVgvHgbIDY5QZwXUvy7WPC/Sao3ee/7C+Mx1T/vgp+JxyE3GferWLC6F4JoJ+k4FiNCwOuOafuDDgAG7QB47ycKu/3lWuQ6hd3vvm66M9o7AsFc0ieFHfYIA79aKbyOtn3DeF6I9xPsrPhTAwgAIAC8dHLI9S1/bVx1rnb1XHRsYy8kfRE3S9ax8NfvHMuFeOLkuTB7+N7OFQEABABsHADi6v8hw8K/TN0ejQVsjE9NdOrprvR4qeWWMPUzUB0NEWapAePFY4D4k7PMCs9S0r6Fa6POuZVzbi9+p24k82Wp8Aa6VU9j2EjaV7iEM2ZL59whO/yBDgB20gHIbPVfK1wXbS1+uTiW1yr3CYJ1XPW3A47hSQyk1Yj+PFvtYIMfagAdACDX1f/j6qi1+gWdc61z7lDlvaSlUbgmfTT0+DvnLmM3oB7J399jN2ssvxd0AGChA5DJ6r9TuCaa1QkyXte+y3wl28XgdZloDOcKewZMCvyTrLXjbhY1gA4A8NQik5VndqujJ9e1m0znxqXCdf7LhGO4jvdXnKqc+yvaGGhNd7NABwDldwB+GF6hPhb/rE/88ZHBO+Wz/e3OV6ZvGMcTSZ8z7Qi02vHjqnQAQADAswHA+PPXRRT/zEJAqxe27zU4nguFPRhyCFVrSVcWuljUAAIACACPJ4NbhR3tKP6EgDa22nMb02nsCCxkq5PVSrqJq/3W0HhxIiQAYOwBwPDNf50G2AHN0Al4IrvbLe/lfE063jB4EEPtJFFw/SppbXX+UgMIACAAPD5rfWHwax6W/jhUXLXeG/xqpylv+BsgaM1iIJhqmK5LHYv+4wunugzGhRMhAQAEAJPvZF86587HcCyMBrDGObdfePCq9M8mTQcb/p92kr4/Kfptrp0SagABACMPAEbb/3XcQGc0vPd3srdj4B6PphU95xiEkWIfADyaGfxOpyM8Dsey92z7nD8PgACAcn0y9n2Wpd709ydxpX1l7Gsd8OcBFHi+of0z8gnwzyUAS5v/dApt526sx8V7/yBDG9u4P703GrnPNQaBDgBGfAKYytYjaFe8+lRLY3Nkxl8KQABAeSyd3DuF/eZHzTm3Utg4xoopfyYAAQDl+cjq3yRL9wJwHwBQ2kKD6z+jX2lae/6fR86iuE3wDyNfJ8ttgbHRPGMQ6ABgxKwU/zXF/5dw1klaGfk6kxhIABAAUEj6nxn6Ol85IqbHZMrhAAgAKMfE0HdZczj+1QVYM1cAEABQ8km95uY/88GIAAAQAFCQv418j28cCvNj85FDARAAQAeg9w4Ah+JFjZHvUXEoAAIAUGqRM8c5ZyUcTTgaQEHnFp4BHT0LE6Bzzn3gUPzhIBl5NwDvBChybjEIdAAAVv+GtQwBAAIAQAAAAAIA6ACMwH8ZAgAEAJTmfwxBHngtMEAAAAAABAAAAEAAAAAABADgFf9hCPJgaFMiAAQAFGDKELzqb4YAAAEAGJ8JQwCgT2wFDBMTgC1mXzlIbAWM4eYWg0AHACNVGzkJscK13wFoOAwAAQDo25QheDEczYx8lY6jARAAUI6WAGAeAQAAAQC9s7LH/CcOxYsOjHyP7xwKgACAcjRWOgDe+4rD8as4JlY6AC1HBCAAoByWTupzDse/zJgrAAgA6J1zrjH0dbgM8G+fDc2VmsMBFHT+5xnQ0QcAee/vZecmvD3nHCtN/Wz//7Cy+nfO7XFUipxnDAIdAIyYpS7AgsPx0wlzBAABAEOydHf3F24G/Omzoe/yjcMBEABQntrQd6mMrXyT8N4vZGv//5o/E6As3AMw9gkQt3b33v+IxdeCTuFegG6kxb+SdG8oAHTOuQ/8tRQ73xgEOgAYubWxLsDZiI/FCat/AAQA7Iq1a7wn3vvpCFdjE4Phh+v/QIG4BDD2CfDPJYBKdh45e9Q45/ZHFgDuZGvzH4lHM0ufcwzCSP3FECAGgc5738jWS3mm3vtz59z5SE7E5waLf1Ny8Y9vWpzEfz7qn/tgpnr+nphW/+yI2Cq8S6NV2Ceh5kwCOgDIrgMQT4Ynki4Mfs3D0k+u8XLHvcGvduqcuyxkjCcK201/jEFrMkRgiv98k1TnEJ6oAQQAEACsXgaQwlMBh8a2Le67MN3LzlMYT2Xd/vfezxW2mB6q4L+mVbjB9sbq/KUGEABAAHg8GdzK5kt5mhgCusKKfyXpTrYuvfwsXjlu/xu7KV/iPLYUqlpJN5JWlkIVNWC8eAoAv/tq9HtNJd2VtEug8eIvSRPv/UO8Tm5+LL33C+/9g0I3ZSF7HZWJwhMeD977uxzGFXQAMKIOQDyZPsjWc+jFdQIyKP6/qyUdW7scEMfxJK74cwyHraSlc25FBwB0AGDBjeHv9tgJmOQ6uBkWfylcQ3/w3l9Y6MLEFf+5pIe4qq4ynQ4TSde5dFpABwDldwAq2bwZ8KlO0lFuTwfE69N3GResx7E/TbVqje9JuMh8DF9Sx45AvcPx5ERIBwD4GQo6SSvjX7OKnYDzjIr/ieze7f/Wsb/23t/vctXqvZ/GjZKuCy3+Uui03FnptIAOAEbWAYgn24lCezWXVdOx1cfV4lhey94mP31Zx45AO+AYnmt874do47yuB56fnAjpAAC/BIM2gy7A01XTg/f+3NKq6cl16vuCi78UHrcbZPy995O46h/jy6Emj90AzkigA4CddQAy7AI8XTUlvas6jt0iFq3JyKZUp57uD4ib+JTc7n+LRuGel5YOAAgAGDwAxJPDtcIz1blpFZ5muNzVI4NPHkn7PMLC/1zBOn1v+9rwttSpw1XvN75SAwgAIAD8qag9ZL4KW0n66pxbD1T45wrbzS6YUc+O/fItK9eMQ+euHPfZ4aIGEABAAPjTCeJc5VyDXSu8qKXZYnU6U3iG/0A2t022uHK90ivdmBg2rxnTjfT2kiZqAAEABIDXThL3ymvjmk218Z9G0v9e+O/8J/72iWjtbzvWz96fkenmSKmtnHPHBAAQADB0AJjFEzSwrVpPNruh+KcNAdSA8eIxQGwaFGpJl4wEejBTeLztOj5pckvxf7cFjwmCDgAG7QA8WandizY4YM27bwykBhAAQADY9GQxjSEAgC1H73nShRowXlwCwFsDQyNpyUgA5lzHgA7QAUD/HYAnq4Y7lb29LZCjRtLhWza/ogbQAQDe6kjhsS4AdkzFDoogAGBIcYVxpLDJC/JaIaJsi7g7JUAAwGAhoJF0ykhk49g5ty/pUHRvSndt6c2YIACgzBCwknTMSJj3cwc+51ztnNuL4a1jaIpUKWyrDLx8/uYGkNEX8F7+//ACF9Ne3C0urhIvOHbFOnztnRfUAAIACACEgJEV/9+O3TQGgRlDVpQ2dnsIAPgXLgGgzzBxrPD6V2RU/OOxa5xzh+LpjtJMvPcnDAPoAGDQDgCdgDyL/wvH8FzSF4VryWNUP11F65/tryvl996CTtLeS3sDUAMIACAA9B0CLiSx8siw+D85hhNJZyMIc20s+N8k1c65doOxmcYg8Enhson1oLR0zp0TAEAAwOABIJ5YFuJOZDMn+i2O4ywGgVlpQUnSzWs3yb1hrn82PEadc+4DAQAEAOwkADw5MV5ovK3kXXr3G+HecCzPlP/bIFcxKLUDjJHlsPTs/KAGEABAABgyBEwV3vk+YcSHWd0pPO7V7OBYVgqXds4yHKcmFsFdjJPF4PvsEwHUgPHiKQDsImQ0kvb1641V6K+o7e2iqMVj2cVLDHuS1hmN09I5t7/DcVrFMbI05yexQwEQALDTENDFx8x4lXB/LmNR6xIcz9Y5d6SwrXBjeIw6he7IOXNeUrhPAQhzlPbP6Avzzj8zrkKuxSWBbYraUR83r/V4TBey1/J+LP6NkfGxcEPsv24GpAbQAQB2GTpqhUsCl4zGm60VWv61sWO6Umh5WzmmZor/k/Gx8M6MijcFgg4AknUA6Aa8S6twA1tt/Yt6738Y6ATsWyn+v43NiUKnJKVf9omgBtABAJJ1A+KdyUvxZrqXVrLLWNByKP5TA8X/1GLxj/P9Uum3y6YDAAIATJ0YzxVayCtG45+VWiz85ylu9Mu0uKxjkbXsVGnft1DxNAAIALAWArrYmhx7EFgpXOc/HmKzmoEdJPzsTjaus786zw18TwIACAAweYJsRxoEci78FgrLMpdOSbycsx5pUIOVecgNIKMvtua/Y3wpzUJlvp2uk3SlcGNWm/MPiW3lu0Qf/+p7743O64dU8+7xcUBqAB0AwHpH4DyesI6V1w50L1kr3NX/If62toDfNE25+s9xXitdh6uKN2yCAABkc9JcxR3ocgwDtcINYHvOuaMhX9yTyMdUq9mMQ+FNws+ecEYZt78YAmQaBLq4elrFF9TMFa5rzgyd2Fr98575dUZ38udWULIdW+dc7b1vE43dVGV00/De+cf1n9EX0uJ+U7y2Oosr0ql2d2NarbAv/ndJdSFt/beMe6qTyZFzbp3xuF0ovGExRXA6ogYQAEAAKL04nWu4V9guU7xshgDwcw67zMdtpjQ3T9bOuUNqwHhxDwCAvopYCnUBITzVb5gwcwkAAJCrb4X8jhQhgABAAACAbLX8DoAAACCdVKvJUgrnf5lCIAAAIAAAIAAAAAACAAAAIAAAAAACAIBUaoYAIAAAwK5MC/kdHzmUIAAAwOb+LuR3TDiUIAAAyFGb6HNnhYzfNMFnNkxbAgAAbCXhmw+n8XXQ2fLezxN9dMfMJQAAQM5dgHnm43aQ6HPpABAAACDrAPAp83FbJPrc/zFlCQAA0IdUb+abe+8nOQ5YbP9XiT6+ZsoSAAAg5w6AJH3JdMxSfu+GKUsAAIDcV5SL3G4G9N7PlO4phtY51zFlCQAAsLX4JECqolJJushsyM5Y/YMAAIAuQD9dgFkOg+S9P1HaPQy+MVVBAADQp6+JP//a+qWAeMPiWeKvsWaqggAAoJQOgBS21DV7KSCGk1ulu/NfCtf/W6YqCAAAehMLS5P4ayy89+dGh+hC6V9gxOofBAAAg7gx8B3OvPcLY6v/a6Xb9Mfa8QEBAECBrKwwr62EAEPFv3XONUxREAAA9C5eBqgNhYDrhIW/8t7fGSn+rP5BAAAwqkKz8N7f73q74PhI4oNsvbJ4xdQEAQDAkF2AlWy9bnYq6d57fz70Y4Le+0nsOtwp7d3+v1tz9z9++Tv13jMK4z5RF/vbvPfTuPo6iAVgqBVgq3Dn+zdJNddYf47/udI/7/7S8VrGgtj1+HsnCnv7L4wV/keHzrn6me/NZCUAgABQRNGZKbwedj5gwd+kwNSSvjrn1iMOAJVCC7wy+hU7hZb4zXtDW/yNM0mf45yzqnbOHb7wGzgREgBAAMi20DyuvFIW/deKzNUY26+GuwAvhbbvCt2cZzfLiQGzUugoHcjW9f03r/4JAAQARoEAkPNq/yyjk3Adg8BougIZdAHG4MXVPwFg3LgJEDkWlYX3/kHhJqtZRl99JunWe/9gbZOaAQNmJ+mKWZvUkiEAHQBk3QGIK/5r2Wvzv1cr6bT0jkDsAtwXdNxysnbOHb1yfBglAgAIAGYLyCQW/lmhh6GOQaApOATMFV6Cg93pJO299qQDNWC8uAQA64XjXPY2U+nbTPEZ9YKD5lq8hGbXln0+5gg6AKADsKvCP42r/unIDkkj6bjEbgA3BO7UH2/8owMAOgCwWihOFK4ZT0f486exG3BSYNjsJB0zwwfHOIMAgPxWiN77W4V3po/dhff+duhtaxOEgLXYj35ox2z5i43+Hmn/jHwCGLkEEG/0ux3pqv9PGhV2SSCGmjuO9SAunXOnbzwejBoBAEgTHuL1fmsvTrGkU9jJraQQMFG4zMMx7zcs7jMM2BSXAJC6EMwo/q+qJN2VtHlQbFEfcmh7Lf6MJwgAyKb4Lyj+bwoB14WFgEbcrNaHTuEyUcdQ4E1/g1wCwBYn8G2K/5Ti/27HzrlVYUHwmsP67uL/8/IQ53MQAGA6AFD8e/Hi290IAeMs/gQAEABgOgBQ/Ic7+RMCxnf8Fa79AwQA2A4AvBRmkCKwV9K1X0LA28If529sg5sAsUt3FP9eVQpPB1QFhcqVwqNsHYf3WU0Mfaz8QQBANiu7C7HxyxCmKmznxFjc9kV7+3fruPInHIEAgGyK/1zSCSMxmEVJjwfGENAqXONecXglhddFH1H80evfGdeQsMVJepPiX4k3wO1CJ2m/xD3gY4C8HukcaiUdvdTy5/wNOgCw7JbivxOVCr15Lr5AaF9SPbJjehlDXcP0BgEAua3cFpJmjMTOzEp8jXAMAW18v/2Ryr9BsFG41n9Kyx+D/l3RQsIWJ+U/Ff9KtP5T6FTYo4EvzK0LSYsCj93SOXf5hrFgxoMOAMw5o/gn8VgcSw6enXPuWOVcFugkLWNwu2QKgw4Asu0AxFe9PjBCSe2VeEPgC/NtKulLhh2BTtKVpMv3dmw4f4MAAGsB4Dqzk3ETT8bfXvjfH8SV9TSj31THa+ajEYPnIoaByvh8u5K03vZSDedvEABgJgBksvrvFDZV+RoL5UYn4XjteRYDwUL2L3EU9cKgNxbGuaRPkuZGjlMb59xNn3f1c/4GAQCWAoDl1X8t6So+VtZXkfkiu086rOK18lGLx+kghoHJjlf6dd9FnwAAAgDMBQDDq/9a4e7qQVbD3vuZwk2PFoPAaO4F2PBYTRQu5UxjKJj21CFo4z/fHgv/Lp7E4PwNAgCsBIDzWAit6PTGx6q2PBkvFO7ArwyNwaVz7pTZulGI0xsCwWPB71Ju1MP5GwQAWAkAPwwVv0ZhC9Wdrn7jCvNWdm4Y7JxzH5itxQYXBgHvxj4A6OtENDdU/NcKN8C1u/7guGPdvuy8xKYq7UVBAAgAsOWzke+xsvDWtHjznZUQ8InpCeBf5ylaSNiiyD2u/itJP4wUf1N3vRt6KuID+8qXh/M36AAgtTnF33wnYM40BUAAQN8OEn9+I8nyne6n8TumxGUAAL8uUGghYYvVrSQTd/+bf2d63K/+LuE48TRAgTh/gw4AUhe2lMV/ab34x7DUKOz/nkoVjxUAEADQi1nCz+4kXeYyUM65c4XNY8Z4rAAQAFCYjwk/+zTDO9uXCT/7gOkK4OeihGtI2GJFK+/9vdLsepftNW3v/YN2+1KaR61zbo+ZWw7O36ADgJSmiT53lfGY3ST63AnTFQABAH2sPqYJP/4m46FbJTxmM2YuAAIAtlUl+tw2hzv/XxLfUdCM7JgBIACgIKlWk+sCxq5O9LlTpi0AAgBy9Y3fAAAEAKTzn0Sf2xYwdk2iz/3ItAVAAMC2pik+NOfr/09+Q6oQUzFtARAAkKOuoN/ScjgBEACAzTQF/RYCAAACAAAAIAAAAAACAPDThCEAAAIACAA5m3E4ARAAkKM2xYd676vcB66E3wCAAIDx+m+iz50WMHapfgM7EAIgACBbM34DABAAkE6T6HMPChi7VFvytkxbAAQAbKtLtXrO+Rp6/O5zAgAAAgCy5JyrE378POOhS/ndG2YuAAIAcl5Rfsl4zD4n+tzOOdcxZQEQAJDzinLqvZ/lNljxO89GdqwAEABQoO8JP/ssw/FK+Z15BBAAAQC9qRN+9sx7v2D1TwcAwNs57z2jgPdNHuceC1vKSdRJ2rN+bTve+X+vtFsZf+AegLJw/gYdAIy5C1BJus5gjC4SF/+a4g+AAIC+fU38+XPv/YnhVdpC0mLkxwgAAQAFWltYYVu8H8B7P5eNDkXNNAXwFPcA4P2TJ94DEAvdvWy8pOfYObcyUvynku4ULlOk1Drn9pix5eH8DToAsODGyPe4ttAJiHf8Wyj+knTF9ARABwBDdQAqST8Mfb2lc+48UfE/Ubjpz4o951zLjKUDANABwBBhoJO0MvSVzrz3d977yQ5PxhPv/Z2x4r+m+AMgAGBoN8a+z0zSvff+fOi3B3rvzxWe858ZGwPa/wCeX7jRQsIWq/7nCuGdwSIohZcWXUla9fU8/JPX+p4p7TP+L/5mbv4rG+dvEABgKQDMJd0a/tqdwmOLX51z63eedOeSPsXiXxn+rWaeiAABAAQAFB4A4knJyiOBm6gVXpLT6p9XGzfx34+/YRL/OZDN7garfwIAQACAiQAwU3gEDukcvbfDAQIACADAuwJAPDFZvRdgDGrn3CHDQAAACABIEQCmCnfFY/f2nXMNw0AAAP6ExwAxVDhoJC0ZiZ27pPgDoAOAZB2AuDqpYhdgwmjtRBtX/x1DQQcAoAOAlAGhk3TMSOzMMcUfAAEAVkJALemSkRjcZRxrANjs/EwLCVsU943/u5ntDZCbRtIhq//x4fwNAgByCAAThfsBKkauV53Cdf+WoSAAAG/BJQDsKiy0kng2vX9HFH8ABABYDwGNuCmwT8dc9wdAAEAuIWAl6ZSR2NolL/oBsNX5mGtI2KKYv/v/1nt/LWnBKL7LyjlHJwXcAwA6AMgyPBxLYgVL8QdAAAAhABR/AAQAjCkEXDISFH8ABACMLwSciqcD/uSU4g+g93MvN5Fgi8Ld6/8/7/1M0q3YLOhRp/Co35qhwAt/MwwCCADIPwDEE9okhoDpyIe3EZv8gACAAXEJANZCReuc25e0HPEwLJ1zbO8LgA4AxtMB+G11M5V0PaJuQCt29wMdANABAAHDNU+6Ad0IVv17FH8AdAAw+g7AbyudiaQzlbd74CoW/5YZBToAIACAAPDyCW8q6ULSLPPhq2PhZ8UPAgAIACAAjKAjsJJ0Q+EHAQAEABAAtg8CC0mfJU2MDlUr6UZhN7+WmQMCAAgAIAD0ezKcS/okaa70mwl1ktaSvrKRDwgAIACAALC7E+MshoGZdvcYYaNwbf8rLX4QAEAAAAEg/UmyiiFgJumjwqWCbUNBo9Da/x6LfuOc65gVIACAAAACQD7BQAqXDKZ/KPaPxZ1CDwIACAAAACBP7AQIAAABAAAAEAAAAAABAAAAEAAAAAABAAAAEAAAAAABAAAAEAAAAAABAAAAEAAAAAABAAAAEAAAAAABAAAAEAAAAAABAAAAEAAAAAABAAAAAgAAACAAAAAAAgAAACAAAAAAAgAAACAAAAAAAgAAACAAAAAAAgAAACAAAAAAAgAAACAAAAAAAgAAACAAAAAAAgAAACAAAAAAAgAAAAQAAABAAAAAAAQAAABAAAAAAAQAAABAAAAAAAQAAABAAAAAAAQAAABAAAAAAAQAAABAAAAAAAQAAADwPv8/ALgy81fjHm0pAAAAAElFTkSuQmCC;" parent="9INkm_Tr2pudweyYevNp-47" vertex="1">
          <mxGeometry x="300" width="112" height="112" as="geometry" />
        </mxCell>
        <mxCell id="9INkm_Tr2pudweyYevNp-46" value="" style="group" parent="9INkm_Tr2pudweyYevNp-47" vertex="1" connectable="0">
          <mxGeometry y="42" width="310" height="532" as="geometry" />
        </mxCell>
        <mxCell id="9INkm_Tr2pudweyYevNp-9" value="" style="swimlane;startSize=0;" parent="9INkm_Tr2pudweyYevNp-46" vertex="1">
          <mxGeometry x="115" y="35" width="195" height="497" as="geometry" />
        </mxCell>
        <mxCell id="9INkm_Tr2pudweyYevNp-22" value="&lt;font style=&quot;font-size: 16px;&quot;&gt;&lt;i&gt;Broker&lt;/i&gt;&lt;/font&gt;" style="whiteSpace=wrap;html=1;" parent="9INkm_Tr2pudweyYevNp-9" vertex="1">
          <mxGeometry x="40" y="195" width="120" height="60" as="geometry" />
        </mxCell>
        <mxCell id="9INkm_Tr2pudweyYevNp-20" value="&lt;font style=&quot;font-size: 16px;&quot;&gt;&lt;i&gt;Broker&lt;/i&gt;&lt;/font&gt;" style="whiteSpace=wrap;html=1;" parent="9INkm_Tr2pudweyYevNp-9" vertex="1">
          <mxGeometry x="40" y="75" width="120" height="60" as="geometry" />
        </mxCell>
        <mxCell id="9INkm_Tr2pudweyYevNp-23" value="&lt;font style=&quot;font-size: 16px;&quot;&gt;&lt;i&gt;Broker&lt;/i&gt;&lt;/font&gt;" style="whiteSpace=wrap;html=1;" parent="9INkm_Tr2pudweyYevNp-9" vertex="1">
          <mxGeometry x="40" y="325" width="120" height="60" as="geometry" />
        </mxCell>
        <mxCell id="9INkm_Tr2pudweyYevNp-13" value="&lt;font style=&quot;font-size: 22px;&quot;&gt;&lt;b&gt;Kafka Cluster&lt;/b&gt;&lt;/font&gt;" style="text;html=1;align=center;verticalAlign=middle;resizable=0;points=[];autosize=1;strokeColor=none;fillColor=none;" parent="9INkm_Tr2pudweyYevNp-46" vertex="1">
          <mxGeometry x="130" width="170" height="40" as="geometry" />
        </mxCell>
        <mxCell id="9INkm_Tr2pudweyYevNp-25" value="&lt;div&gt;&lt;i style=&quot;font-size: 16px;&quot;&gt;Schema Registry&lt;/i&gt;&lt;/div&gt;" style="shape=parallelogram;perimeter=parallelogramPerimeter;whiteSpace=wrap;html=1;fixedSize=1;" parent="9INkm_Tr2pudweyYevNp-46" vertex="1">
          <mxGeometry y="238.75" width="105" height="52.5" as="geometry" />
        </mxCell>
        <mxCell id="9INkm_Tr2pudweyYevNp-27" style="edgeStyle=orthogonalEdgeStyle;rounded=0;orthogonalLoop=1;jettySize=auto;html=1;entryX=-0.005;entryY=0.463;entryDx=0;entryDy=0;entryPerimeter=0;" parent="9INkm_Tr2pudweyYevNp-46" source="9INkm_Tr2pudweyYevNp-25" target="9INkm_Tr2pudweyYevNp-9" edge="1">
          <mxGeometry relative="1" as="geometry" />
        </mxCell>
        <mxCell id="9INkm_Tr2pudweyYevNp-48" value="" style="group" parent="9INkm_Tr2pudweyYevNp-51" vertex="1" connectable="0">
          <mxGeometry x="50" y="750" width="610" height="130" as="geometry" />
        </mxCell>
        <mxCell id="9INkm_Tr2pudweyYevNp-29" value="" style="swimlane;startSize=0;" parent="9INkm_Tr2pudweyYevNp-48" vertex="1">
          <mxGeometry x="110" width="500" height="130" as="geometry" />
        </mxCell>
        <mxCell id="9INkm_Tr2pudweyYevNp-34" value="&lt;font style=&quot;font-size: 22px;&quot;&gt;&lt;b&gt;Flink Cluster&lt;/b&gt;&lt;/font&gt;" style="text;html=1;align=center;verticalAlign=middle;resizable=0;points=[];autosize=1;strokeColor=none;fillColor=none;" parent="9INkm_Tr2pudweyYevNp-29" vertex="1">
          <mxGeometry x="165" y="40" width="160" height="40" as="geometry" />
        </mxCell>
        <mxCell id="9INkm_Tr2pudweyYevNp-35" value="" style="shape=image;verticalLabelPosition=bottom;labelBackgroundColor=default;verticalAlign=top;aspect=fixed;imageAspect=0;image=https://flink.apache.org/img/logo/png/100/flink_squirrel_100_color.png;" parent="9INkm_Tr2pudweyYevNp-48" vertex="1">
          <mxGeometry y="10" width="100" height="100" as="geometry" />
        </mxCell>
        <mxCell id="9INkm_Tr2pudweyYevNp-33" style="edgeStyle=orthogonalEdgeStyle;rounded=0;orthogonalLoop=1;jettySize=auto;html=1;exitX=0.5;exitY=1;exitDx=0;exitDy=0;" parent="9INkm_Tr2pudweyYevNp-48" source="9INkm_Tr2pudweyYevNp-29" target="9INkm_Tr2pudweyYevNp-29" edge="1">
          <mxGeometry relative="1" as="geometry" />
        </mxCell>
        <mxCell id="9INkm_Tr2pudweyYevNp-86" value="&lt;span style=&quot;font-size: 22px;&quot;&gt;&lt;b&gt;Monitoring&lt;/b&gt;&lt;/span&gt;" style="text;html=1;align=center;verticalAlign=middle;resizable=0;points=[];autosize=1;strokeColor=none;fillColor=none;" parent="9INkm_Tr2pudweyYevNp-51" vertex="1">
          <mxGeometry x="636" y="950" width="140" height="40" as="geometry" />
        </mxCell>
        <mxCell id="9INkm_Tr2pudweyYevNp-54" value="" style="rounded=0;whiteSpace=wrap;html=1;fillColor=none;" parent="9INkm_Tr2pudweyYevNp-51" vertex="1">
          <mxGeometry x="200" y="920" width="1000" height="100" as="geometry" />
        </mxCell>
        <mxCell id="9INkm_Tr2pudweyYevNp-88" value="" style="shape=image;verticalLabelPosition=bottom;labelBackgroundColor=default;verticalAlign=top;aspect=fixed;imageAspect=0;image=https://icon.icepanel.io/Technology/svg/Prometheus.svg;" parent="9INkm_Tr2pudweyYevNp-51" vertex="1">
          <mxGeometry x="338" y="927.5" width="82" height="82" as="geometry" />
        </mxCell>
        <mxCell id="9INkm_Tr2pudweyYevNp-87" value="" style="shape=image;verticalLabelPosition=bottom;labelBackgroundColor=default;verticalAlign=top;aspect=fixed;imageAspect=0;image=https://upload.wikimedia.org/wikipedia/commons/thumb/a/a1/Grafana_logo.svg/512px-Grafana_logo.svg.png?20230113183101;" parent="9INkm_Tr2pudweyYevNp-51" vertex="1">
          <mxGeometry x="223.85" y="930" width="75.23" height="77" as="geometry" />
        </mxCell>
        <mxCell id="9INkm_Tr2pudweyYevNp-44" value="&lt;span style=&quot;font-size: 22px;&quot;&gt;&lt;b&gt;gRPC Server&lt;/b&gt;&lt;/span&gt;" style="text;html=1;align=center;verticalAlign=middle;resizable=0;points=[];autosize=1;strokeColor=none;fillColor=none;" parent="9INkm_Tr2pudweyYevNp-51" vertex="1">
          <mxGeometry x="189.99666666666667" y="140" width="160" height="40" as="geometry" />
        </mxCell>
        <mxCell id="SB-F7PkfCV-YLo0jDkt0-6" value="" style="group" vertex="1" connectable="0" parent="9INkm_Tr2pudweyYevNp-51">
          <mxGeometry x="1150" y="520" width="259.4200000000001" height="298.32" as="geometry" />
        </mxCell>
        <mxCell id="SB-F7PkfCV-YLo0jDkt0-5" value="" style="group" vertex="1" connectable="0" parent="SB-F7PkfCV-YLo0jDkt0-6">
          <mxGeometry width="259.4200000000001" height="298.32" as="geometry" />
        </mxCell>
        <mxCell id="YAynQRb3QsHlwENaNshC-1" value="" style="shape=image;verticalLabelPosition=bottom;labelBackgroundColor=default;verticalAlign=top;aspect=fixed;imageAspect=0;editableCssRules=.*;image=data:image/svg+xml,PHN2ZyB4bWxuczp4bGluaz0iaHR0cDovL3d3dy53My5vcmcvMTk5OS94bGluayIgeG1sbnM9Imh0dHA6Ly93d3cudzMub3JnLzIwMDAvc3ZnIiB2aWV3Qm94PSItMC4wMDUxOTQzNjEzMjE2MjgwOTQgLTAuMDQ5OTk5ODEwNzU1MjUyODQgNjEwLjA0NTE2NjAxNTYyNSAxMzkuMjEwMDA2NzEzODY3MiIgZGF0YS1uYW1lPSJMYXllciAxIiBpZD0iTGF5ZXJfMSIgd2lkdGg9IjYxMC4wNDUxNjYwMTU2MjUiIGhlaWdodD0iMTM5LjIxMDAwNjcxMzg2NzIiPiYjeGE7IDxkZWZzPiYjeGE7ICA8c3R5bGU+JiN4YTsgICAuY2xzLTF7ZmlsbDojMjliNWU4O2ZpbGwtcnVsZTpldmVub2RkO30mI3hhOyAgPC9zdHlsZT4mI3hhOyA8L2RlZnM+JiN4YTsgPHBhdGggZD0iTTYwMS44MSw0MS4wN0g2MDAuMnYyaDEuNjFjLjc0LDAsMS4yMy0uMzMsMS4yMy0xUzYwMi41OSw0MS4wNyw2MDEuODEsNDEuMDdabS0zLjU5LTEuODNoMy42MmMyLDAsMy4zLDEuMDgsMy4zLDIuNzZhMi42NCwyLjY0LDAsMCwxLTEuMzEsMi4zMmwxLjQyLDIuMDZ2LjQxaC0yLjA2bC0xLjM4LTJINjAwLjJ2MmgtMlptMTAuMTMsMy45MmMwLTQtMi42OS03LjEtNi44MS03LjFzLTYuNzMsMi45MS02LjczLDcuMWMwLDQsMi42OSw3LjExLDYuNzMsNy4xMVM2MDguMzUsNDcuMiw2MDguMzUsNDMuMTZabTEuNjksMGMwLDQuNzYtMy4xOCw4LjcyLTguNSw4Ljcycy04LjQxLTQtOC40MS04LjcyLDMuMTQtOC43MSw4LjQxLTguNzFTNjEwLDM4LjQxLDYxMCw0My4xNlpNMTM0LjExLDYwLjA3bC0xNi4zOSw5LjQ4TDEzNC4xMSw3OWE4LjY0LDguNjQsMCwxLDEtOC42NCwxNUw5Ni4xMiw3N2E4LjU4LDguNTgsMCwwLDEtMy45Mi00LjkzLDguNDQsOC40NCwwLDAsMS0uMzgtMi44MSw4LDgsMCwwLDEsLjMtMiw4LjY3LDguNjcsMCwwLDEsNC01LjE4bDI5LjM1LTE2Ljk0YTguNjQsOC42NCwwLDAsMSw4LjY0LDE1Wk0xMTguNTksMTA2LDg5LjI1LDg5LjA4YTguNDksOC40OSwwLDAsMC01LTEuMTMsOC42Myw4LjYzLDAsMCwwLTgsOC42MXYzMy44OGE4LjY0LDguNjQsMCwwLDAsMTcuMjgsMHYtMTlMMTEwLDEyMWE4LjY0LDguNjQsMCwxLDAsOC42My0xNVpNODQuNzMsNzIuODYsNzIuNTMsODVhMi4zOSwyLjM5LDAsMCwxLTEuNTMuNjVINjcuNDJBMi40OCwyLjQ4LDAsMCwxLDY1Ljg4LDg1TDUzLjY5LDcyLjg2YTIuNDksMi40OSwwLDAsMS0uNjMtMS41MlY2Ny43NWEyLjUsMi41LDAsMCwxLC42My0xLjU0TDY1Ljg4LDU0YTIuNDcsMi40NywwLDAsMSwxLjU0LS42NEg3MWEyLjQsMi40LDAsMCwxLDEuNTMuNjRsMTIuMiwxMi4xOGEyLjUsMi41LDAsMCwxLC42MywxLjU0djMuNTlBMi40OSwyLjQ5LDAsMCwxLDg0LjczLDcyLjg2Wk03NSw2OS40OGEyLjY0LDIuNjQsMCwwLDAtLjY0LTEuNTVMNzAuOCw2NC40MmEyLjQ1LDIuNDUsMCwwLDAtMS41Mi0uNjRoLS4xNGEyLjQ1LDIuNDUsMCwwLDAtMS41Mi42NGwtMy41MywzLjUxYTIuNTEsMi41MSwwLDAsMC0uNjMsMS41NXYuMTNhMi40MSwyLjQxLDAsMCwwLC42MywxLjUybDMuNTMsMy41M2EyLjQ4LDIuNDgsMCwwLDAsMS41Mi42NGguMTRhMi40NSwyLjQ1LDAsMCwwLDEuNTItLjY0bDMuNTQtMy41M0EyLjUzLDIuNTMsMCwwLDAsNzUsNjkuNjFaTTE5LjgzLDMzLjA2LDQ5LjE4LDUwYTguNjcsOC42NywwLDAsMCwxMy03LjQ5VjguNjNhOC42NCw4LjY0LDAsMCwwLTE3LjI4LDB2MTlMMjguNDYsMTguMWE4LjY0LDguNjQsMCwxLDAtOC42MywxNVpNODQuMjUsNTEuMTNhOC41Nyw4LjU3LDAsMCwwLDUtMS4xM2wyOS4zNC0xNi45NGE4LjY0LDguNjQsMCwxLDAtOC42My0xNUw5My41MywyNy41OXYtMTlhOC42NCw4LjY0LDAsMCwwLTE3LjI4LDBWNDIuNTFBOC42NCw4LjY0LDAsMCwwLDg0LjI1LDUxLjEzWk01NC4xOSw4OGE4LjQ5LDguNDksMCwwLDAtNSwxLjEzTDE5LjgzLDEwNmE4LjY0LDguNjQsMCwxLDAsOC42MywxNWwxNi40NC05LjQ4djE5YTguNjQsOC42NCwwLDEsMCwxNy4yOCwwVjk2LjU2QTguNjMsOC42MywwLDAsMCw1NC4xOSw4OFptLTgtMTUuODdhOC40NSw4LjQ1LDAsMCwwLC4zOS0yLjgxLDksOSwwLDAsMC0uMzEtMiw4LjU2LDguNTYsMCwwLDAtNC01LjE4TDEzLDQ1LjExYTguNjQsOC42NCwwLDAsMC04LjY0LDE1bDE2LjM5LDkuNDhMNC4zMiw3OUE4LjY0LDguNjQsMCwwLDAsMTMsOTRMNDIuMjksNzdBOC41NCw4LjU0LDAsMCwwLDQ2LjIzLDcyLjA4Wm0zNjQtNTAuNjNoLTEuNDNhMTguOSwxOC45LDAsMCwwLTYsLjg2LDEwLjkyLDEwLjkyLDAsMCwwLTQuOTIsMy4yaDBBMTMsMTMsMCwwLDAsMzk1LjA3LDMxYTI5LDI5LDAsMCwwLS44LDcuMTJ2NS4xOGgtNS43MUEzLjU1LDMuNTUsMCwwLDAsMzg1LDQ2Ljc3YTMuODQsMy44NCwwLDAsMCwxLDIuNjcsMy45MiwzLjkyLDAsMCwwLDIuNTYsMS4xN2g1LjY3VjkyLjg1YTMuNTksMy41OSwwLDAsMCwxLjA4LDIuNTUsMy43OCwzLjc4LDAsMCwwLDIuNjEsMSwzLjU2LDMuNTYsMCwwLDAsMy41MS0zLjU4VjUwLjYxaDYuMTRhMy44NywzLjg3LDAsMCwwLDIuNTUtMS4xNCwzLjcyLDMuNzIsMCwwLDAsMS4wOC0yLjYzVjQ2LjdhMy41NSwzLjU1LDAsMCwwLTMuNTktMy40NWgtNi4xOFYzOC4wOWEyMS4xNCwyMS4xNCwwLDAsMSwuNjItNS4yMyw2LjMzLDYuMzMsMCwwLDEsMS4xOS0yLjUyQTQuMDksNC4wOSwwLDAsMSw0MDUsMjkuMjZhMTEuODQsMTEuODQsMCwwLDEsMy42Mi0uNDVoLjE5bC4yOCwwLC4zMywwaC44MWEzLjY4LDMuNjgsMCwxLDAsMC03LjM2Wm0xMjYuNiwyNy4zM2EzLjY4LDMuNjgsMCwwLDAsMS4xMS0yLjYsMy40MiwzLjQyLDAsMCwwLTEuMTItMi41MWgwbDAsMCwwLDBoMGEzLjUsMy41LDAsMCwwLTUuMDYsMEw1MDMuNDksNzEuMTlWMjQuOWEzLjY3LDMuNjcsMCwwLDAtMy43Mi0zLjYyLDMuNiwzLjYsMCwwLDAtMi41NCwxLjA3LDMuNjcsMy42NywwLDAsMC0xLjA3LDIuNTVWOTIuNjZhMy42NSwzLjY1LDAsMCwwLDMuNjEsMy42MSwzLjY3LDMuNjcsMCwwLDAsMy43Mi0zLjYxVjgxLjQ4bDkuMjEtOS4xOSwxOC43NiwyMi42M2EyLjkxLDIuOTEsMCwwLDAsMS4zLDEuMDcsNC41LDQuNSwwLDAsMCwxLjU0LjI4LDMuNzksMy43OSwwLDAsMCwyLjM2LS43N2wuMDUsMCwwLDBhMy44MSwzLjgxLDAsMCwwLDEuMTgtMi43MywzLjc2LDMuNzYsMCwwLDAtLjg5LTIuNGgwbC0xOS4xLTIzLjIxLDE4LjktMTguMjlabS01MS00LjY2YTMuNjEsMy42MSwwLDAsMSwxLjA4LDIuNTlWOTIuNjZhMy42NCwzLjY0LDAsMCwxLTMuNjEsMy42MSwzLjY3LDMuNjcsMCwwLDEtMi41NS0xLjA3LDMuNTgsMy41OCwwLDAsMS0xLjA3LTIuNTRWODguMThhMjQuMTksMjQuMTksMCwwLDEtMzUuOTEuMjIsMjcuNTMsMjcuNTMsMCwwLDEsMC0zNy40MywyNC4zMywyNC4zMywwLDAsMSwzNS45MS4xMlY0Ni43MWEzLjYyLDMuNjIsMCwwLDEsMS4wOS0yLjU5LDMuNywzLjcsMCwwLDEsNS4wNiwwWm0tNi4xNSwyNS41N2EyMC4yLDIwLjIsMCwwLDAtNS4zMy0xMy44MiwxNywxNywwLDAsMC0yNS4zMywwLDIwLjIyLDIwLjIyLDAsMCwwLTUuMzYsMTMuODJBMjAsMjAsMCwwLDAsNDQ5LDgzLjQ0YTE3LjE4LDE3LjE4LDAsMCwwLDI1LjM1LDBBMjAuMDcsMjAuMDcsMCwwLDAsNDc5LjY4LDY5LjY5Wk0xODguOCw2OC40YTg3LjI3LDg3LjI3LDAsMCwwLTkuNTMtMy40OSw2NS4xNSw2NS4xNSwwLDAsMS04LjMzLTMsOC4wOSw4LjA5LDAsMCwxLTIuNTItMS45MiwzLjU3LDMuNTcsMCwwLDEtLjg2LTIuMzksNS43Miw1LjcyLDAsMCwxLDEtMy4zNUE5Ljc4LDkuNzgsMCwwLDEsMTczLjA2LDUxYTE0LjY0LDE0LjY0LDAsMCwxLDUuMTItMS4wNiwxNC4xNSwxNC4xNSwwLDAsMSw4LjY4LDIuNzljMSwuNzEsMS44MiwxLjQ0LDIuNiwyYTYuMjUsNi4yNSwwLDAsMCwxLjIyLjgsMy4xNiwzLjE2LDAsMCwwLDEuNDMuMzgsMi41NiwyLjU2LDAsMCwwLDEtLjIsMy4xLDMuMSwwLDAsMCwuODgtLjU1LDMsMywwLDAsMCwuNjUtLjg4LDIuNTgsMi41OCwwLDAsMCwuMjEtMSwzLjgxLDMuODEsMCwwLDAtLjUtMS44MSwxMSwxMSwwLDAsMC0yLjQ1LTIuOSwyNC40MSwyNC40MSwwLDAsMC02LTMuNzgsMTcuNjYsMTcuNjYsMCwwLDAtNy0xLjcxYy01LjM3LDAtOS44NSwxLjIyLTEzLjExLDMuNDZhMTMuNzcsMTMuNzcsMCwwLDAtNC4yNCw0LjIyLDEzLjU5LDEzLjU5LDAsMCwwLTEuNzUsNi44MXYuMzhhMTAuODMsMTAuODMsMCwwLDAsMi4yNyw2LjgzYzIuMTMsMi42OCw1LjI4LDQuMjksOC4zNyw1LjQzczYuMTYsMS44Miw4LjExLDIuNDdhMzkuMjUsMzkuMjUsMCwwLDEsNy43OCwzLjIxQTkuMTcsOS4xNywwLDAsMSwxODguODMsNzhhNC43MSw0LjcxLDAsMCwxLC45LDIuNzF2LjA4YTYuMjcsNi4yNywwLDAsMS0xLjIxLDMuNzgsMTAuNjIsMTAuNjIsMCwwLDEtNSwzLjM3LDE3LjM5LDE3LjM5LDAsMCwxLTUuMzcsMSwyMS41NiwyMS41NiwwLDAsMS0xMC4wOS0yLjI2Yy0xLjE0LS41Ny0yLjA2LTEuMTMtMi45LTEuNjEtLjQxLS4yMi0uOC0uNDMtMS4yMS0uNmEzLjQzLDMuNDMsMCwwLDAtMS4zLS4yNywyLjQ4LDIuNDgsMCwwLDAtLjkxLjE3LDIuMzYsMi4zNiwwLDAsMC0uNzkuNTIsMy42NywzLjY3LDAsMCwwLS43OSwxLDIuNzcsMi43NywwLDAsMC0uMjgsMS4yMywzLjU0LDMuNTQsMCwwLDAsLjY0LDEuOTQsOS44OSw5Ljg5LDAsMCwwLDIuNTQsMi4zNiwzMS4zMSwzMS4zMSwwLDAsMCw0LDIuMjEsMjguOSwyOC45LDAsMCwwLDExLjA5LDIuNWgwYzUuMTUsMCw5LjYxLTEuMTksMTMuMzYtNGgwYTE0LjM3LDE0LjM3LDAsMCwwLDUuOTUtMTEuNTEsMTIuNiwxMi42LDAsMCwwLTEuNjQtNi40OEExNS41MywxNS41MywwLDAsMCwxODguOCw2OC40Wk00MjUuMTcsMjEuMjhhMy42MiwzLjYyLDAsMCwwLTIuNTQsMS4wNywzLjU4LDMuNTgsMCwwLDAtMS4wNywyLjU1VjkyLjY2YTMuNTQsMy41NCwwLDAsMCwxLjA3LDIuNTQsMy42NywzLjY3LDAsMCwwLDYuMjYtMi41NFYyNC45QTMuNjcsMy42NywwLDAsMCw0MjUuMTcsMjEuMjhaTTU5MS41Niw2OHYuMzZhMy4zMSwzLjMxLDAsMCwxLTEuMTMsMi40OSwzLjc4LDMuNzgsMCwwLDEtMi41LjkySDU0Ny4zN2MxLDkuOSw4LjkzLDE3LjIsMTguMzcsMTcuMjhoMi4zOUExNS45MywxNS45MywwLDAsMCw1NzcsODYuMThhMjIsMjIsMCwwLDAsNi42My03LDMuMzEsMy4zMSwwLDAsMSwxLjM0LTEuMjksMy40MywzLjQzLDAsMCwxLDEuNjktLjQzLDMuNjMsMy42MywwLDAsMSwxLjg0LjVsMCwwLDAsMGEzLjkxLDMuOTEsMCwwLDEsMS42NSwzLjE0LDMuNjYsMy42NiwwLDAsMS0uNTEsMS44N3YwaDBhMzAuNDUsMzAuNDUsMCwwLDEtOSw5LjI3LDIzLDIzLDAsMCwxLTEyLjUxLDMuOTFINTY1LjdhMjUuNDYsMjUuNDYsMCwwLDEtMTguMTktNy44N0EyNi43MSwyNi43MSwwLDAsMSw1NDAsNjkuNzlhMjcuMDksMjcuMDksMCwwLDEsNy41NC0xOC44NiwyNS4zOSwyNS4zOSwwLDAsMSwxOC4zMy03LjgxLDI1LDI1LDAsMCwxLDE3LjU3LDcuMTgsMjcuNDgsMjcuNDgsMCwwLDEsOC4wNywxNy42M1ptLTcuOTItMy40MkExOC40NiwxOC40NiwwLDAsMCw1NjUuOSw1MC4zYTE4LjY3LDE4LjY3LDAsMCwwLTE4LDE0LjI2Wk0yMjcuMzQsNDMuMjFhMjEuNzcsMjEuNzcsMCwwLDAtMTQuNjgsNS43M1Y0Ni44M2EzLjcsMy43LDAsMCwwLTEtMi41MywzLjQ4LDMuNDgsMCwwLDAtMi41MS0xLjA5LDMuNTcsMy41NywwLDAsMC0zLjYyLDMuNjJWOTMuNzRsLjE1LjE1djBhMS44NSwxLjg1LDAsMCwwLC4yNC40OSwzLjg5LDMuODksMCwwLDAsMi4zLDEuODJsLjE1LDBoLjc4YTMuNjgsMy42OCwwLDAsMCwxLjU0LS4zNUEzLjE0LDMuMTQsMCwwLDAsMjExLjgsOTVoMHMuMDUtLjA5LjEtLjEzLDAsMCwwLDBhMy4yNiwzLjI2LDAsMCwwLC40NS0uNzQsNS4zNSw1LjM1LDAsMCwwLC4yMi0uNzVsMC0uMTNWNjVhMTUsMTUsMCwwLDEsNC40Mi0xMC4zMkExNC41NSwxNC41NSwwLDAsMSwyNDEuOTIsNjVWOTIuNjZhMy42MywzLjYzLDAsMCwwLDYuMTUsMi41OSwzLjU5LDMuNTksMCwwLDAsMS4wOC0yLjU5VjY1QTIxLjg3LDIxLjg3LDAsMCwwLDIyNy4zNCw0My4yMVpNMjk5LjIyLDUxYTI3LjQzLDI3LjQzLDAsMCwxLDAsMzcuMzcsMjQuMTgsMjQuMTgsMCwwLDEtMzUuNzYsMCwyNy4zNCwyNy4zNCwwLDAsMSwwLTM3LjM3LDI0LjIzLDI0LjIzLDAsMCwxLDM1Ljc2LDBabS4xLDE4LjY5QTIwLjE3LDIwLjE3LDAsMCwwLDI5NCw1NS45MWExNi45MywxNi45MywwLDAsMC0yNS4zLDAsMjAuMTcsMjAuMTcsMCwwLDAtNS4zNiwxMy43OCwyMCwyMCwwLDAsMCw1LjM2LDEzLjcxLDE3LDE3LDAsMCwwLDI1LjMsMEEyMCwyMCwwLDAsMCwyOTkuMzIsNjkuNjlabTc4LTI2LjE3aDBhMy4yOSwzLjI5LDAsMCwwLTEuMy0uMjcsMy43MiwzLjcyLDAsMCwwLTMuMzksMi4yMnYwbC0xMy44LDM3Ljc4TDM0OC4xOSw1Ny45MmgwYTMuNjMsMy42MywwLDAsMC0xLjQ0LTEuNjMsMy45MywzLjkzLDAsMCwwLTIuMDctLjU5LDMuNzksMy43OSwwLDAsMC0zLjQxLDIuMjJoMEwzMzAuNTgsODMuMjcsMzE2LjcsNDUuNWgwYTMuMTksMy4xOSwwLDAsMC0xLjMyLTEuNjgsMy43MiwzLjcyLDAsMCwwLTItLjU5LDMuNTgsMy41OCwwLDAsMC0xLjM2LjI3aDBsMCwwYTMuNjIsMy42MiwwLDAsMC0xLjgzLDQuNjNoMEwzMjcuMiw5NHYwYTMuNTgsMy41OCwwLDAsMCwuNiwxLDMsMywwLDAsMCwuNzkuNiwyLjIyLDIuMjIsMCwwLDAsLjI4LjIxLDEuNjMsMS42MywwLDAsMCwuNTEuMTksMy43OSwzLjc5LDAsMCwwLDEuMjUuMjQsMy41NCwzLjU0LDAsMCwwLDEuOTEtLjYxLDMuMzQsMy4zNCwwLDAsMCwxLjI4LTEuNTlsLjA1LDAsMTAuNzktMjUuOCwxMC44MSwyNS43aDBhMy41MSwzLjUxLDAsMCwwLDEuMiwxLjYsMy44LDMuOCwwLDAsMCwxLjc3Ljc0aC40NWEzLjMsMy4zLDAsMCwwLDEuMjEtLjIyLDQsNCwwLDAsMCwuOTItLjUxLDQuMjcsNC4yNywwLDAsMCwxLjMtMS43M3YwbDE3LTQ1LjYzYTMuNTcsMy41NywwLDAsMC0xLjkzLTQuNjNaIiBjbGFzcz0iY2xzLTEiPiYjeGE7IDwvcGF0aD4mI3hhOzwvc3ZnPg==;" parent="SB-F7PkfCV-YLo0jDkt0-5" vertex="1">
          <mxGeometry x="90" y="10" width="219.42" height="50" as="geometry" />
        </mxCell>
        <mxCell id="9INkm_Tr2pudweyYevNp-42" value="" style="group" parent="SB-F7PkfCV-YLo0jDkt0-6" vertex="1" connectable="0">
          <mxGeometry x="13.230000000000018" y="10" width="206.76999999999998" height="288.32" as="geometry" />
        </mxCell>
        <mxCell id="9INkm_Tr2pudweyYevNp-38" value="" style="shape=datastore;whiteSpace=wrap;html=1;" parent="9INkm_Tr2pudweyYevNp-42" vertex="1">
          <mxGeometry x="11.379999999999995" y="57.69" width="180" height="230.63" as="geometry" />
        </mxCell>
        <mxCell id="9INkm_Tr2pudweyYevNp-39" value="&lt;span style=&quot;font-size: 22px;&quot;&gt;&lt;b&gt;Snowflake&lt;/b&gt;&lt;/span&gt;&lt;div&gt;&lt;span style=&quot;font-size: 22px;&quot;&gt;&lt;b&gt;Data Warehouse&lt;/b&gt;&lt;/span&gt;&lt;/div&gt;" style="text;html=1;align=center;verticalAlign=middle;resizable=0;points=[];autosize=1;strokeColor=none;fillColor=none;" parent="9INkm_Tr2pudweyYevNp-42" vertex="1">
          <mxGeometry x="1.3799999999999955" y="156.5" width="200" height="70" as="geometry" />
        </mxCell>
        <mxCell id="SB-F7PkfCV-YLo0jDkt0-11" value="" style="group" vertex="1" connectable="0" parent="9INkm_Tr2pudweyYevNp-51">
          <mxGeometry x="981.38" y="50" width="218.62" height="328.32" as="geometry" />
        </mxCell>
        <mxCell id="SB-F7PkfCV-YLo0jDkt0-3" value="" style="shape=datastore;whiteSpace=wrap;html=1;" vertex="1" parent="SB-F7PkfCV-YLo0jDkt0-11">
          <mxGeometry x="10" y="97.69" width="180" height="230.63" as="geometry" />
        </mxCell>
        <mxCell id="SB-F7PkfCV-YLo0jDkt0-4" value="&lt;span style=&quot;font-size: 22px;&quot;&gt;&lt;b&gt;PostgreSQL&lt;/b&gt;&lt;/span&gt;&lt;div&gt;&lt;span style=&quot;font-size: 22px;&quot;&gt;&lt;b&gt;Transactional DB&lt;/b&gt;&lt;/span&gt;&lt;/div&gt;" style="text;html=1;align=center;verticalAlign=middle;resizable=0;points=[];autosize=1;strokeColor=none;fillColor=none;" vertex="1" parent="SB-F7PkfCV-YLo0jDkt0-11">
          <mxGeometry y="196.5" width="200" height="70" as="geometry" />
        </mxCell>
        <mxCell id="SB-F7PkfCV-YLo0jDkt0-9" value="" style="shape=image;verticalLabelPosition=bottom;labelBackgroundColor=default;verticalAlign=top;aspect=fixed;imageAspect=0;image=https://wiki.postgresql.org/images/3/30/PostgreSQL_logo.3colors.120x120.png;" vertex="1" parent="SB-F7PkfCV-YLo0jDkt0-11">
          <mxGeometry x="128.62" width="90" height="90" as="geometry" />
        </mxCell>
        <mxCell id="SB-F7PkfCV-YLo0jDkt0-7" style="edgeStyle=orthogonalEdgeStyle;rounded=0;orthogonalLoop=1;jettySize=auto;html=1;exitX=1;exitY=0.25;exitDx=0;exitDy=0;startArrow=classic;startFill=0;" edge="1" parent="9INkm_Tr2pudweyYevNp-51" source="9INkm_Tr2pudweyYevNp-9" target="SB-F7PkfCV-YLo0jDkt0-4">
          <mxGeometry relative="1" as="geometry" />
        </mxCell>
        <mxCell id="SB-F7PkfCV-YLo0jDkt0-12" style="edgeStyle=orthogonalEdgeStyle;rounded=0;orthogonalLoop=1;jettySize=auto;html=1;entryX=1;entryY=0;entryDx=0;entryDy=0;" edge="1" parent="9INkm_Tr2pudweyYevNp-51" source="SB-F7PkfCV-YLo0jDkt0-3" target="9INkm_Tr2pudweyYevNp-1">
          <mxGeometry relative="1" as="geometry">
            <Array as="points">
              <mxPoint x="1200" y="30" />
              <mxPoint x="370" y="30" />
            </Array>
          </mxGeometry>
        </mxCell>
        <mxCell id="SB-F7PkfCV-YLo0jDkt0-15" style="edgeStyle=orthogonalEdgeStyle;rounded=0;orthogonalLoop=1;jettySize=auto;html=1;entryX=0.001;entryY=0.585;entryDx=0;entryDy=0;entryPerimeter=0;" edge="1" parent="9INkm_Tr2pudweyYevNp-51" source="SB-F7PkfCV-YLo0jDkt0-16" target="9INkm_Tr2pudweyYevNp-39">
          <mxGeometry relative="1" as="geometry" />
        </mxCell>
        <mxCell id="SB-F7PkfCV-YLo0jDkt0-19" value="&lt;h1&gt;&lt;font style=&quot;font-size: 33px; color: light-dark(rgb(0, 0, 0), rgb(255, 255, 255));&quot;&gt;CDC&lt;/font&gt;&lt;/h1&gt;&lt;div&gt;&lt;font style=&quot;font-size: 20px;&quot;&gt;W/ DEBEZIUM&lt;/font&gt;&lt;/div&gt;" style="edgeLabel;html=1;align=center;verticalAlign=middle;resizable=0;points=[];" vertex="1" connectable="0" parent="SB-F7PkfCV-YLo0jDkt0-15">
          <mxGeometry x="-0.3378" relative="1" as="geometry">
            <mxPoint as="offset" />
          </mxGeometry>
        </mxCell>
        <mxCell id="SB-F7PkfCV-YLo0jDkt0-16" value="" style="shape=image;verticalLabelPosition=bottom;labelBackgroundColor=default;verticalAlign=top;aspect=fixed;imageAspect=0;image=https://www.vectorlogo.zone/logos/debeziumio/debeziumio-icon.svg;" vertex="1" parent="9INkm_Tr2pudweyYevNp-51">
          <mxGeometry x="922" y="400" width="64" height="64" as="geometry" />
        </mxCell>
        <mxCell id="SB-F7PkfCV-YLo0jDkt0-17" value="" style="edgeStyle=orthogonalEdgeStyle;rounded=0;orthogonalLoop=1;jettySize=auto;html=1;entryX=0.001;entryY=0.585;entryDx=0;entryDy=0;entryPerimeter=0;" edge="1" parent="9INkm_Tr2pudweyYevNp-51" source="9INkm_Tr2pudweyYevNp-9" target="SB-F7PkfCV-YLo0jDkt0-16">
          <mxGeometry relative="1" as="geometry">
            <mxPoint x="400" y="205" as="sourcePoint" />
            <mxPoint x="555" y="557" as="targetPoint" />
            <Array as="points">
              <mxPoint x="860" y="395" />
              <mxPoint x="860" y="427" />
            </Array>
          </mxGeometry>
        </mxCell>
        <mxCell id="SB-F7PkfCV-YLo0jDkt0-22" style="edgeStyle=orthogonalEdgeStyle;rounded=0;orthogonalLoop=1;jettySize=auto;html=1;entryX=0;entryY=0.3;entryDx=0;entryDy=0;" edge="1" parent="9INkm_Tr2pudweyYevNp-51" source="9INkm_Tr2pudweyYevNp-9" target="9INkm_Tr2pudweyYevNp-38">
          <mxGeometry relative="1" as="geometry">
            <Array as="points">
              <mxPoint x="997" y="540" />
              <mxPoint x="997" y="657" />
            </Array>
          </mxGeometry>
        </mxCell>
        <mxCell id="9INkm_Tr2pudweyYevNp-52" value="&lt;font style=&quot;font-size: 34px;&quot;&gt;&lt;b&gt;DATA ENGINEERING STACK&lt;/b&gt;&lt;/font&gt;" style="text;html=1;align=center;verticalAlign=middle;resizable=0;points=[];autosize=1;strokeColor=none;fillColor=none;" parent="9INkm_Tr2pudweyYevNp-53" vertex="1">
          <mxGeometry x="430" width="480" height="50" as="geometry" />
        </mxCell>
        <mxCell id="9INkm_Tr2pudweyYevNp-107" value="" style="group" parent="1" vertex="1" connectable="0">
          <mxGeometry x="1240" y="-250" width="1070" height="990" as="geometry" />
        </mxCell>
        <mxCell id="9INkm_Tr2pudweyYevNp-101" value="" style="rounded=0;whiteSpace=wrap;html=1;fillColor=#dae8fc;strokeColor=#6c8ebf;gradientColor=light-dark(#7EA6E0,#7D98B8);" parent="9INkm_Tr2pudweyYevNp-107" vertex="1">
          <mxGeometry y="60" width="1070" height="930" as="geometry" />
        </mxCell>
        <mxCell id="9INkm_Tr2pudweyYevNp-102" value="" style="group" parent="9INkm_Tr2pudweyYevNp-107" vertex="1" connectable="0">
          <mxGeometry x="225" y="202.5" width="620" height="645" as="geometry" />
        </mxCell>
        <mxCell id="9INkm_Tr2pudweyYevNp-94" style="edgeStyle=orthogonalEdgeStyle;rounded=0;orthogonalLoop=1;jettySize=auto;html=1;exitX=1;exitY=0.5;exitDx=0;exitDy=0;entryX=0;entryY=0.5;entryDx=0;entryDy=0;" parent="9INkm_Tr2pudweyYevNp-102" source="9INkm_Tr2pudweyYevNp-89" target="9INkm_Tr2pudweyYevNp-93" edge="1">
          <mxGeometry relative="1" as="geometry" />
        </mxCell>
        <mxCell id="9INkm_Tr2pudweyYevNp-95" style="edgeStyle=orthogonalEdgeStyle;rounded=0;orthogonalLoop=1;jettySize=auto;html=1;" parent="9INkm_Tr2pudweyYevNp-102" source="9INkm_Tr2pudweyYevNp-93" target="9INkm_Tr2pudweyYevNp-96" edge="1">
          <mxGeometry relative="1" as="geometry">
            <mxPoint x="530" y="480" as="targetPoint" />
          </mxGeometry>
        </mxCell>
        <mxCell id="9INkm_Tr2pudweyYevNp-93" value="&lt;font style=&quot;font-size: 22px;&quot;&gt;&lt;b&gt;Model&lt;/b&gt;&lt;/font&gt;" style="ellipse;whiteSpace=wrap;html=1;" parent="9INkm_Tr2pudweyYevNp-102" vertex="1">
          <mxGeometry x="440" y="100" width="180" height="180" as="geometry" />
        </mxCell>
        <mxCell id="9INkm_Tr2pudweyYevNp-99" value="" style="group" parent="9INkm_Tr2pudweyYevNp-102" vertex="1" connectable="0">
          <mxGeometry width="270" height="330" as="geometry" />
        </mxCell>
        <mxCell id="9INkm_Tr2pudweyYevNp-89" value="&lt;font style=&quot;font-size: 22px;&quot;&gt;&lt;b&gt;Training Model DAG&lt;/b&gt;&lt;/font&gt;" style="rhombus;whiteSpace=wrap;html=1;" parent="9INkm_Tr2pudweyYevNp-99" vertex="1">
          <mxGeometry x="70" y="50" width="200" height="280" as="geometry" />
        </mxCell>
        <mxCell id="9INkm_Tr2pudweyYevNp-90" value="" style="shape=image;verticalLabelPosition=bottom;labelBackgroundColor=default;verticalAlign=top;aspect=fixed;imageAspect=0;image=https://icon.icepanel.io/Technology/svg/Apache-Airflow.svg;" parent="9INkm_Tr2pudweyYevNp-99" vertex="1">
          <mxGeometry width="100" height="100" as="geometry" />
        </mxCell>
        <mxCell id="9INkm_Tr2pudweyYevNp-100" value="" style="group" parent="9INkm_Tr2pudweyYevNp-102" vertex="1" connectable="0">
          <mxGeometry x="240" y="395" width="359" height="250" as="geometry" />
        </mxCell>
        <mxCell id="9INkm_Tr2pudweyYevNp-96" value="&lt;font style=&quot;font-size: 22px;&quot;&gt;&lt;b&gt;MLFlow&lt;/b&gt;&lt;/font&gt;" style="shape=datastore;whiteSpace=wrap;html=1;" parent="9INkm_Tr2pudweyYevNp-100" vertex="1">
          <mxGeometry y="50" width="200" height="200" as="geometry" />
        </mxCell>
        <mxCell id="9INkm_Tr2pudweyYevNp-98" value="" style="shape=image;verticalLabelPosition=bottom;labelBackgroundColor=default;verticalAlign=top;aspect=fixed;imageAspect=0;editableCssRules=.*;image=data:image/svg+xml,PHN2ZyB4bWxucz0iaHR0cDovL3d3dy53My5vcmcvMjAwMC9zdmciIGZpbGw9Im5vbmUiIHZpZXdCb3g9IjAgMC4xOTA1NTEyOTU4NzY1MDMgMTA4LjcwODAwMDE4MzEwNTQ3IDM5LjY3OTM0Nzk5MTk0MzM2IiBoZWlnaHQ9IjM5LjY3OTM0Nzk5MTk0MzM2IiB3aWR0aD0iMTA4LjcwODAwMDE4MzEwNTQ3Ij4mI3hhOzxwYXRoIGZpbGw9IiMzMzMzMzMiIGQ9Ik0wIDMxLjAzMTZWMTUuNTAyNEgzLjU0MjU4VjE3LjQ2OTlDNC40MzYzNiAxNS44NzU2IDYuMzgyNzggMTUuMDQ1IDguMTM1ODkgMTUuMDQ1QzEwLjE3OCAxNS4wNDUgMTEuOTYzNiAxNS45NzEzIDEyLjc5NDMgMTcuNzg5NUMxNC4wMDk2IDE1Ljc0NzQgMTUuODI3OCAxNS4wNDUgMTcuODM3MyAxNS4wNDVDMjAuNjQ2OSAxNS4wNDUgMjMuMzI2MyAxNi44MzI1IDIzLjMyNjMgMjAuOTQ5M1YzMS4wMzE2SDE5Ljc1MzFWMjEuNTU0MUMxOS43NTMxIDE5LjczNTkgMTguODI2OCAxOC4zNjM2IDE2Ljc1MjIgMTguMzYzNkMxNC44MDU3IDE4LjM2MzYgMTMuNTI5MiAxOS44OTQ3IDEzLjUyOTIgMjEuODA4NlYzMS4wMjk3SDkuODkyODJWMjEuNTU0MUM5Ljg5MjgyIDE5Ljc2ODQgOC45OTUyMiAxOC4zNzMyIDYuODg5OTUgMTguMzczMkM0LjkxMjkyIDE4LjM3MzIgMy42NjY5OSAxOS44NDEyIDMuNjY2OTkgMjEuODE4MlYzMS4wMzkyWiIvPiYjeGE7PHBhdGggZmlsbD0iIzMzMzMzMyIgZD0iTTI3Ljg1NDYgMzEuMDMxNlY3LjkyOTE3SDMxLjU1NzlWMzEuMDMxNloiLz4mI3hhOzxwYXRoIGZpbGw9IiMwMTk0RTIiIGQ9Ik0zMC4wNzA4IDM5LjQ4NzFDMzAuOTAzMyAzOS43MTg3IDMxLjY1MTcgMzkuODY5OSAzMy4yNDAyIDM5Ljg2OTlDMzYuMTkzMyAzOS44Njk5IDM5LjY3NjUgMzguMjA0OCA0MC41OTMzIDMzLjUzMTFMNDQuMzc4OSAxNC43OTIzSDUwLjAwNzZMNTAuNjk0NyAxMS42NzQ2SDQ1LjAwODZMNDUuNzc0MSA3Ljk1MDIzQzQ2LjM1OTggNS4wNTgzNyA0Ny45NTk4IDMuNTkyMzQgNTAuNTI4MiAzLjU5MjM0QzUxLjE5NjIgMy41OTIzNCA1MS4wMDg2IDMuNjQ5NzUgNTEuNjAzOCAzLjc2MjY3TDUyLjQyNjggMC41NzAzMjdDNTEuNjM0NCAwLjMzMzAwNiA1MC45MjQ0IDAuMTkxMzc5IDQ5LjM3OCAwLjE5MTM3OUM0Ny43NDU0IDAuMTY2ODMxIDQ2LjE1MTQgMC42ODg5MzQgNDQuODQ5NyAxLjY3NDYzQzQzLjQwODYgMi43ODg1MSA0Mi40NTc0IDQuNDI0ODcgNDIuMDIzIDYuNTM3NzlMNDAuOTU2OSAxMS42NzQ2SDM1LjkyMzRMMzUuNTExOSAxNC43OTQzSDQwLjMzNDlMMzYuODU5MyAzMi4xMjA2QzM2LjQ3NjUgMzQuMDg2MSAzNS4zNTg4IDM2LjQzNjQgMzIuMTUxMiAzNi40MzY0QzMxLjQyMzkgMzYuNDM2NCAzMS42ODggMzYuMzgwOSAzMS4wMjk3IDM2LjI3MzdaIi8+JiN4YTs8cGF0aCBmaWxsPSIjMDE5NEUyIiBkPSJNNTMuMzQxNiAzMC45MDUzSDQ5LjY0MDJMNTQuNzEzOSA3LjU5NjE2SDU4LjQxNTNaIi8+JiN4YTs8cGF0aCBmaWxsPSIjNDNDOUVEIiBkPSJNNzEuODA2NyAxNi40NzY2QzY4LjU3NjIgMTQuMjE2MSA2NC4xNzc4IDE0LjY2MDYgNjEuNDY0OSAxNy41MjE2QzU4Ljc1MTkgMjAuMzgyNiA1OC41NDE2IDI0Ljc5ODQgNjAuOTcwMyAyNy45MDQzTDYzLjM5NTIgMjYuMTI0NEM2Mi4xOTE1IDI0LjYzMTIgNjEuOTQ3MSAyMi41ODE1IDYyLjc2NTggMjAuODQ3MUM2My41ODQ1IDE5LjExMjcgNjUuMzIyNCAxNy45OTg3IDY3LjI0MDIgMTcuOTc5VjE5Ljg3MzdaIi8+JiN4YTs8cGF0aCBmaWxsPSIjMDE5NEUyIiBkPSJNNjIuNjE3OSAyOS40NzE3QzY1Ljg0ODQgMzEuNzMyMiA3MC4yNDY4IDMxLjI4NzcgNzIuOTU5NyAyOC40MjY3Qzc1LjY3MjcgMjUuNTY1NyA3NS44ODMgMjEuMTQ5OSA3My40NTQzIDE4LjA0NEw3MS4wMjk0IDE5LjgyMzlDNzIuMjMzMSAyMS4zMTcxIDcyLjQ3NzUgMjMuMzY2OCA3MS42NTg4IDI1LjEwMTJDNzAuODQwMSAyNi44MzU2IDY5LjEwMjIgMjcuOTQ5NiA2Ny4xODQ0IDI3Ljk2OTNWMjYuMDc0NloiLz4mI3hhOzxwYXRoIGZpbGw9IiMwMTk0RTIiIGQ9Ik03OC4wOTE5IDE1LjQ5MjhIODIuMTM1OUw4Mi45NTg4IDI2LjEwNTNMODguNzE3NyAxNS40OTI4TDkyLjU1NjkgMTUuNTQ4M0w5NC4wNjUxIDI2LjEwNTNMOTkuMTM4NyAxNS40OTI4TDEwMi44NCAxNS41NDgzTDk1LjE2MTcgMzEuMDQxMkg5MS40NjAzTDg5LjY3NjUgMTkuOTM0OUw4My43ODE4IDMxLjA0MTJINzkuOTQyNloiLz4mI3hhOzxwYXRoIGZpbGw9IiMwMTk0RTIiIGQ9Ik0xMDUuMDcyIDE1Ljc2ODRIMTA0LjMwNlYxNS41MDI0SDEwNi4xNTFWMTUuNzc0MUgxMDUuMzg2VjE4LjAxNzJIMTA1LjA3MloiLz4mI3hhOzxwYXRoIGZpbGw9IiMwMTk0RTIiIGQ9Ik0xMDYuNjE0IDE1LjUwMjRIMTA2Ljk5N0wxMDcuNDc5IDE2Ljg0MjFDMTA3LjU0MSAxNy4wMTQzIDEwNy41OTggMTcuMTkwNCAxMDcuNjU3IDE3LjM2NjVIMTA3LjY3NUMxMDcuNzM0IDE3LjE5MDQgMTA3Ljc4OCAxNy4wMTQzIDEwNy44NDcgMTYuODQyMUwxMDguMzI1IDE1LjUwMjRIMTA4LjcwOFYxOC4wMTcySDEwOC40MVYxNi42Mjk3QzEwOC40MSAxNi40MDk2IDEwOC40MzQgMTYuMTA3MiAxMDguNDUgMTUuODgzMkgxMDguNDM0TDEwOC4yNDMgMTYuNDU3NEwxMDcuNzY4IDE3Ljc2MDhIMTA3LjU2TDEwNy4wNzkgMTYuNDU5M0wxMDYuODg4IDE1Ljg4NTJIMTA2Ljg3M0MxMDYuODkgMTYuMTA5MSAxMDYuOTE1IDE2LjQxMTUgMTA2LjkxNSAxNi42MzE2VjE4LjAxOTFIMTA2LjYyNFoiLz4mI3hhOzwvc3ZnPg==;" parent="9INkm_Tr2pudweyYevNp-100" vertex="1">
          <mxGeometry x="200" width="159" height="58.35" as="geometry" />
        </mxCell>
        <mxCell id="9INkm_Tr2pudweyYevNp-104" value="&lt;font style=&quot;font-size: 34px;&quot;&gt;&lt;b&gt;Machine Learning Stack&lt;/b&gt;&lt;/font&gt;" style="text;html=1;align=center;verticalAlign=middle;resizable=0;points=[];autosize=1;strokeColor=none;fillColor=none;" parent="9INkm_Tr2pudweyYevNp-107" vertex="1">
          <mxGeometry x="325" width="410" height="50" as="geometry" />
        </mxCell>
        <mxCell id="9INkm_Tr2pudweyYevNp-103" style="edgeStyle=orthogonalEdgeStyle;rounded=0;orthogonalLoop=1;jettySize=auto;html=1;entryX=0;entryY=0.5;entryDx=0;entryDy=0;" parent="1" source="9INkm_Tr2pudweyYevNp-39" target="9INkm_Tr2pudweyYevNp-89" edge="1">
          <mxGeometry relative="1" as="geometry" />
        </mxCell>
        <mxCell id="9INkm_Tr2pudweyYevNp-127" value="" style="group" parent="1" vertex="1" connectable="0">
          <mxGeometry x="1150" y="-740" width="1340" height="400" as="geometry" />
        </mxCell>
        <mxCell id="9INkm_Tr2pudweyYevNp-111" value="" style="rounded=0;whiteSpace=wrap;html=1;fillColor=light-dark(#F8CECC,#3C7C9C);strokeColor=#b85450;gradientColor=light-dark(#000000, #3d8a7d);" parent="9INkm_Tr2pudweyYevNp-127" vertex="1">
          <mxGeometry y="60" width="1340" height="340" as="geometry" />
        </mxCell>
        <mxCell id="9INkm_Tr2pudweyYevNp-122" value="&lt;font style=&quot;font-size: 34px;&quot;&gt;&lt;b&gt;Data Analysis &amp;amp; Visualization&lt;/b&gt;&lt;/font&gt;" style="text;html=1;align=center;verticalAlign=middle;resizable=0;points=[];autosize=1;strokeColor=none;fillColor=none;" parent="9INkm_Tr2pudweyYevNp-127" vertex="1">
          <mxGeometry x="420" width="500" height="50" as="geometry" />
        </mxCell>
        <mxCell id="9INkm_Tr2pudweyYevNp-123" value="" style="shape=image;verticalLabelPosition=bottom;labelBackgroundColor=default;verticalAlign=top;aspect=fixed;imageAspect=0;image=https://upload.wikimedia.org/wikipedia/commons/thumb/0/0e/Superset_logo.svg/512px-Superset_logo.svg.png?20210129193338;" parent="9INkm_Tr2pudweyYevNp-127" vertex="1">
          <mxGeometry x="40" y="80" width="512" height="133" as="geometry" />
        </mxCell>
        <mxCell id="9INkm_Tr2pudweyYevNp-124" value="&lt;div&gt;&lt;font style=&quot;font-size: 22px;&quot;&gt;&lt;br&gt;&lt;/font&gt;&lt;/div&gt;&lt;font style=&quot;font-size: 22px;&quot;&gt;&lt;div&gt;&lt;font style=&quot;font-size: 22px;&quot;&gt;&lt;br&gt;&lt;/font&gt;&lt;/div&gt;Data Analyst&lt;/font&gt;" style="shape=actor;whiteSpace=wrap;html=1;" parent="9INkm_Tr2pudweyYevNp-127" vertex="1">
          <mxGeometry x="617.5" y="150" width="105" height="140" as="geometry" />
        </mxCell>
        <mxCell id="9INkm_Tr2pudweyYevNp-126" style="edgeStyle=orthogonalEdgeStyle;rounded=0;orthogonalLoop=1;jettySize=auto;html=1;entryX=0.5;entryY=1;entryDx=0;entryDy=0;exitX=0.309;exitY=0.049;exitDx=0;exitDy=0;exitPerimeter=0;" parent="1" target="9INkm_Tr2pudweyYevNp-124" edge="1" source="9INkm_Tr2pudweyYevNp-38">
          <mxGeometry relative="1" as="geometry">
            <mxPoint x="801" y="170" as="sourcePoint" />
            <Array as="points">
              <mxPoint x="810" y="349" />
              <mxPoint x="1100" y="349" />
              <mxPoint x="1100" y="-420" />
              <mxPoint x="1820" y="-420" />
            </Array>
          </mxGeometry>
        </mxCell>
        <mxCell id="9INkm_Tr2pudweyYevNp-128" value="" style="shape=image;verticalLabelPosition=bottom;labelBackgroundColor=default;verticalAlign=top;aspect=fixed;imageAspect=0;image=https://streamlit.io/images/brand/streamlit-logo-primary-colormark-darktext.png;" parent="1" vertex="1">
          <mxGeometry x="2670" y="90" width="576.58" height="160" as="geometry" />
        </mxCell>
        <mxCell id="9INkm_Tr2pudweyYevNp-130" value="&lt;font style=&quot;font-size: 34px;&quot;&gt;&lt;b&gt;Demo UI&lt;/b&gt;&lt;/font&gt;" style="text;html=1;align=center;verticalAlign=middle;resizable=0;points=[];autosize=1;strokeColor=none;fillColor=none;" parent="1" vertex="1">
          <mxGeometry x="2910" y="-60" width="160" height="50" as="geometry" />
        </mxCell>
        <mxCell id="9INkm_Tr2pudweyYevNp-131" style="edgeStyle=orthogonalEdgeStyle;rounded=0;orthogonalLoop=1;jettySize=auto;html=1;exitX=1;exitY=0.5;exitDx=0;exitDy=0;entryX=0.5;entryY=1;entryDx=0;entryDy=0;" parent="1" source="9INkm_Tr2pudweyYevNp-96" target="9INkm_Tr2pudweyYevNp-128" edge="1">
          <mxGeometry relative="1" as="geometry" />
        </mxCell>
        <mxCell id="9INkm_Tr2pudweyYevNp-132" style="edgeStyle=orthogonalEdgeStyle;rounded=0;orthogonalLoop=1;jettySize=auto;html=1;entryX=0.5;entryY=0;entryDx=0;entryDy=0;" parent="1" source="9INkm_Tr2pudweyYevNp-124" target="9INkm_Tr2pudweyYevNp-128" edge="1">
          <mxGeometry relative="1" as="geometry">
            <Array as="points">
              <mxPoint x="1910" y="-520" />
              <mxPoint x="1910" y="-290" />
              <mxPoint x="2690" y="-290" />
              <mxPoint x="2690" y="30" />
              <mxPoint x="2958" y="30" />
            </Array>
          </mxGeometry>
        </mxCell>
      </root>
    </mxGraphModel>
  </diagram>
</mxfile>
